<?xml version="1.0" standalone="no"?>
<!DOCTYPE svg PUBLIC "-//W3C//DTD SVG 20010904//EN"
 "http://www.w3.org/TR/2001/REC-SVG-20010904/DTD/svg10.dtd">
<svg version="1.0" xmlns="http://www.w3.org/2000/svg"
 width="626.000000pt" height="562.000000pt" viewBox="0 0 626.000000 562.000000"
 preserveAspectRatio="xMidYMid meet">

<g transform="translate(0.000000,562.000000) scale(0.100000,-0.100000)"
fill="#000000" stroke="none">
<path d="M0 4845 c0 -768 0 -775 20 -775 26 0 26 -17 0 -25 -17 -6 -20 -15
-20 -75 0 -38 6 -81 12 -96 10 -22 10 -28 0 -32 -9 -3 -12 -119 -12 -522 0
-474 1 -518 17 -524 9 -4 47 8 89 28 104 49 111 25 9 -27 l-30 -16 41 -6 c47
-8 72 -21 61 -31 -4 -5 -45 0 -90 9 -45 9 -85 17 -89 17 -5 0 -8 -51 -8 -114
l0 -114 50 -11 c64 -14 100 -14 100 -1 0 6 7 10 15 10 8 0 15 -7 15 -15 0 -11
11 -15 40 -15 21 0 51 -5 65 -12 33 -15 44 -56 20 -74 -24 -18 -33 -11 -27 24
4 28 2 30 -40 34 -23 3 -49 0 -56 -5 -9 -7 -16 -7 -20 0 -4 6 -34 13 -67 17
-33 4 -68 9 -78 12 -16 5 -17 -59 -17 -1250 l0 -1256 898 0 897 1 28 55 c15
31 31 78 34 106 4 35 9 46 15 35 12 -22 -8 -103 -38 -154 l-25 -43 100 0 100
0 -1 40 c0 48 23 87 57 96 48 12 73 -33 51 -96 l-14 -40 545 2 544 3 42 80
c48 90 71 102 75 40 1 -22 5 -59 8 -82 l5 -43 44 0 c49 0 55 8 55 80 0 39 -4
49 -20 53 -40 10 -18 24 47 30 41 4 71 3 78 -4 6 -6 2 -12 -13 -15 -20 -6 -22
-12 -22 -75 l0 -69 41 0 41 0 -4 48 c-3 26 -8 55 -12 65 -6 12 -4 17 7 17 8 0
17 -7 21 -15 4 -13 9 -13 25 -3 15 9 23 9 35 -1 18 -15 11 -35 -10 -27 -17 6
-20 0 -29 -47 l-7 -37 249 0 250 0 11 25 c14 29 15 120 3 180 l-8 40 -13 -32
c-12 -34 -30 -44 -30 -19 0 30 46 67 113 90 65 23 95 18 40 -6 -16 -7 -29 -13
-31 -14 -6 -3 51 -150 64 -163 10 -11 16 -12 28 -2 20 17 30 -4 10 -23 -31
-32 -64 6 -99 114 -22 70 -23 70 -40 64 -12 -5 -13 -23 -8 -99 4 -57 2 -104
-5 -124 l-11 -31 683 0 683 0 13 68 c12 64 11 74 -10 136 -12 37 -20 70 -17
73 12 11 25 -8 38 -54 l13 -47 23 52 c33 75 47 56 19 -26 -13 -37 -29 -92 -36
-122 -7 -30 -17 -61 -23 -67 -7 -10 68 -13 372 -13 l381 0 0 85 0 85 -30 0
c-40 0 -38 17 3 29 l32 9 -38 1 c-45 1 -41 21 4 21 l29 0 0 255 c0 250 0 255
-19 245 -28 -15 -61 -12 -61 5 0 9 6 12 16 8 8 -3 26 0 40 7 18 10 24 22 24
46 0 38 -19 49 -49 27 -27 -18 -40 -9 -23 17 21 34 15 43 -25 36 -35 -6 -37
-5 -19 9 29 22 76 20 76 -4 0 -10 9 -21 20 -24 20 -5 20 0 20 609 0 338 -4
614 -8 614 -5 0 -14 -11 -20 -25 -12 -25 -32 -34 -32 -15 0 6 7 24 15 41 15
28 14 32 -5 58 -23 34 -25 41 -7 41 7 0 18 -9 25 -20 7 -12 17 -18 22 -15 6 4
10 251 10 663 0 645 0 656 -19 622 -31 -59 -151 -109 -151 -64 0 9 6 14 13 11
27 -10 96 31 114 67 9 20 23 36 30 36 11 0 13 88 13 467 0 425 -1 465 -16 447
-15 -18 -15 -18 -10 6 2 14 7 36 11 50 l7 25 -21 -24 c-12 -13 -21 -29 -21
-37 0 -8 -5 -14 -11 -14 -8 0 -9 15 -5 48 l7 47 -23 -26 c-13 -14 -28 -35 -35
-45 -10 -17 -12 -14 -12 21 -1 22 2 50 5 63 7 24 24 30 24 9 0 -9 10 -12 30
-9 17 2 30 0 30 -6 0 -6 9 -8 20 -5 26 7 25 20 -2 29 -56 17 -109 45 -104 53
4 5 31 -1 64 -14 31 -13 58 -19 60 -15 2 5 -8 26 -22 46 l-25 37 -7 -27 c-6
-26 -24 -37 -24 -13 1 32 27 111 39 115 10 3 12 -2 7 -21 -5 -21 -3 -24 14
-20 13 3 20 14 20 28 0 17 -10 26 -46 40 -25 10 -49 13 -54 9 -4 -5 -36 -62
-70 -126 -34 -65 -65 -118 -70 -118 -10 0 -20 37 -20 78 0 39 23 40 28 2 3
-18 18 3 63 88 33 62 64 112 69 112 4 0 29 -9 54 -20 l46 -19 0 168 c0 155 -2
169 -20 186 -26 24 -26 75 1 109 12 16 19 37 17 53 l-3 28 -16 -29 c-9 -16
-19 -24 -22 -19 -4 6 4 27 18 47 24 35 25 44 25 186 l0 150 -3130 0 -3130 0 0
-775z m2214 684 c6 -46 10 -59 19 -50 32 32 87 -6 87 -61 0 -57 -45 -105 -79
-83 -6 3 -11 1 -11 -6 0 -7 -3 -9 -7 -6 -3 4 -9 35 -13 69 l-7 63 -2 -70 c-2
-38 -5 -64 -8 -58 -3 10 -10 10 -25 2 -15 -8 -24 -7 -39 7 -36 32 -18 104 26
104 28 0 31 8 13 33 -14 18 -29 13 -45 -17 -7 -12 -13 -15 -17 -7 -4 6 5 23
20 38 l27 27 25 -30 25 -29 -7 68 c-4 38 -3 67 2 67 5 0 13 -28 16 -61z m716
8 c0 -46 13 -76 24 -58 4 6 16 11 28 11 18 0 20 4 14 40 -6 39 -5 40 23 40 17
0 31 -6 35 -16 9 -25 7 -64 -4 -64 -5 0 -10 14 -10 30 0 17 -4 30 -9 30 -16 0
-17 -63 -2 -88 29 -48 -10 -138 -56 -129 -13 2 -23 -1 -23 -6 0 -7 -3 -7 -9
-1 -5 5 -14 58 -20 118 -14 135 -14 149 -1 141 6 -3 10 -25 10 -48z m-190 -19
c0 -15 -4 -28 -10 -28 -5 0 -10 14 -10 30 0 17 -4 30 -10 30 -5 0 -10 -13 -10
-30 0 -16 -4 -30 -10 -30 -5 0 -10 8 -10 18 0 9 -3 27 -6 39 -5 17 -1 22 18
25 29 5 48 -17 48 -54z m-320 31 c13 -23 13 -49 0 -49 -5 0 -10 11 -10 25 0
14 -4 25 -10 25 -5 0 -10 -11 -10 -24 0 -14 -4 -27 -9 -30 -9 -6 -21 25 -21
55 0 23 48 22 60 -2z m2720 -10 c7 -11 9 -27 6 -35 -3 -9 1 -14 12 -14 13 0
12 -4 -8 -20 -30 -23 -44 -13 -31 22 10 25 6 38 -11 38 -4 0 -8 -9 -8 -20 0
-11 -4 -20 -10 -20 -16 0 -12 37 6 54 21 21 31 20 44 -5z m-3066 -46 c-17 -50
-17 -73 2 -129 19 -55 12 -69 -11 -23 -20 37 -23 136 -6 168 19 35 30 24 15
-16z m286 -13 c14 -58 0 -140 -28 -162 -14 -11 -15 -10 -8 7 28 69 31 134 10
188 -3 9 -2 17 4 17 5 0 15 -22 22 -50z m326 -15 c7 -19 14 -58 14 -88 l0 -53
-35 -1 c-44 -1 -70 30 -59 71 7 29 38 51 60 42 18 -7 18 5 0 29 -15 21 -46 14
-46 -10 0 -8 -4 -15 -10 -15 -15 0 -12 21 7 42 26 29 52 22 69 -17z m-1644
-22 c28 -33 41 -64 29 -76 -7 -7 -15 1 -27 27 -23 46 -48 49 -42 4 3 -18 7
-39 9 -47 2 -7 -1 -15 -6 -17 -6 -3 -21 17 -34 43 -26 53 -26 58 -8 58 6 0 18
6 25 13 18 17 36 15 54 -5z m1771 -4 l15 -20 16 22 c8 13 19 20 22 16 4 -4 0
-15 -9 -24 -12 -14 -13 -22 -5 -37 9 -16 8 -18 -7 -12 -10 3 -24 1 -32 -6 -12
-10 -13 -7 -8 13 4 17 1 30 -9 38 -9 8 -16 17 -16 22 0 16 19 9 33 -12z m1293
-40 c-10 -48 -9 -52 13 -71 13 -10 31 -23 40 -28 9 -5 12 -12 8 -17 -5 -4 -22
0 -39 10 -36 20 -38 19 -47 -24 -4 -18 -12 -34 -20 -37 -10 -3 -11 8 -6 51 l7
55 -44 26 c-25 14 -49 26 -55 26 -5 0 -22 -22 -36 -49 l-27 -49 65 -30 c36
-17 65 -36 65 -41 0 -16 -12 -14 -72 14 -54 25 -68 21 -49 -14 13 -24 14 -51
2 -51 -7 0 -40 75 -108 248 -3 6 2 12 10 12 9 0 25 -24 39 -61 l24 -60 30 48
c37 59 69 66 125 28 l38 -24 6 32 c4 18 12 40 17 50 17 32 25 8 14 -44z m1016
34 c10 -9 18 -23 18 -31 0 -13 -3 -13 -18 1 -44 40 -83 8 -62 -49 27 -69 83
-88 103 -34 13 33 27 40 27 12 0 -31 -29 -62 -59 -62 -77 0 -128 112 -75 165
20 20 43 19 66 -2z m-254 -26 c2 -20 8 -27 18 -23 21 8 17 -12 -5 -24 -33 -17
-40 -12 -35 28 4 27 3 33 -5 22 -12 -18 -26 -7 -17 15 10 26 41 13 44 -18z
m-2348 19 c0 -2 3 -11 6 -20 5 -12 0 -16 -19 -16 -24 0 -42 21 -30 34 7 7 43
8 43 2z m3434 -57 c5 -15 5 -35 1 -45 -7 -16 -9 -14 -15 14 -4 18 -11 36 -14
40 -10 9 -26 -19 -26 -45 0 -13 -4 -23 -10 -23 -5 0 -10 6 -10 14 0 7 -3 27
-6 44 -6 29 -5 30 32 29 32 -2 40 -7 48 -28z m-447 12 c7 7 15 5 27 -6 17 -17
20 -42 10 -69 -10 -27 -24 -7 -17 26 4 22 3 29 -5 24 -7 -4 -12 -18 -12 -32 0
-35 -16 -30 -26 9 l-8 32 -3 -32 c-5 -39 -18 -43 -27 -9 -3 13 -9 32 -13 42
-5 13 -3 16 10 11 9 -3 19 -2 23 4 4 7 10 7 18 0 9 -7 16 -7 23 0z m-1936 -16
c-1 -6 -14 -14 -30 -20 -43 -15 -44 -19 -21 -65 22 -43 29 -45 84 -24 11 4 16
1 16 -10 0 -9 -6 -16 -13 -16 -7 0 -21 -6 -31 -13 -16 -11 -14 -18 19 -91 24
-50 33 -82 27 -88 -13 -13 -163 293 -150 307 10 11 78 34 91 31 5 -1 8 -6 8
-11z m1187 -25 c22 -39 22 -40 42 -20 63 63 157 -52 104 -128 -8 -12 -24 -22
-34 -22 -10 0 -20 -6 -23 -12 -2 -7 -6 -11 -9 -8 -8 8 -118 217 -118 224 0 17
17 2 38 -34z m-3801 -15 c27 -19 68 -89 98 -170 20 -53 22 -65 10 -65 -8 0
-15 5 -15 11 0 7 -9 0 -21 -15 -26 -33 -59 -33 -97 -1 -38 32 -48 72 -28 119
11 27 23 38 46 42 38 8 38 16 0 48 -45 37 -60 27 -72 -47 -2 -10 -7 -18 -13
-18 -17 1 -17 48 0 80 18 35 55 42 92 16z m3681 -27 c2 -20 7 -25 23 -21 29 8
23 -10 -10 -29 -36 -20 -43 -14 -36 31 4 24 3 30 -3 17 -10 -24 -27 -4 -18 20
9 25 41 12 44 -18z m378 17 c-17 -13 -18 -15 -3 -15 27 0 20 -17 -10 -24 -24
-7 -42 5 -43 26 0 11 33 27 55 27 20 0 20 0 1 -14z m436 -45 c20 -39 26 -200
8 -200 -5 0 -10 5 -10 10 0 7 -6 7 -19 0 -28 -14 -38 -13 -61 10 -47 47 -6
151 53 136 22 -5 24 -3 20 17 -14 54 -45 62 -71 17 -9 -16 -20 -30 -24 -30
-15 0 -8 27 13 54 30 38 68 32 91 -14z m423 20 c12 -13 21 -48 28 -103 12 -92
6 -127 -17 -108 -10 8 -16 9 -21 1 -21 -34 -85 16 -85 67 0 44 40 87 76 80 21
-4 24 -1 18 17 -16 53 -56 59 -74 11 -6 -15 -14 -23 -20 -20 -10 6 0 34 23 63
14 18 52 15 72 -8z m-1485 -30 c38 -27 55 -79 40 -124 -6 -18 -49 -89 -96
-157 -47 -68 -129 -189 -183 -269 -110 -162 -111 -163 -238 -250 -91 -62 -131
-73 -119 -33 2 10 8 63 11 118 l7 100 75 110 c282 417 334 490 365 507 45 24
103 23 138 -2z m-3792 -17 c25 -37 33 -61 23 -68 -5 -3 -18 11 -30 30 -30 52
-45 46 -37 -15 4 -27 3 -50 -2 -50 -12 0 -66 100 -55 101 4 1 12 1 16 0 4 -1
15 5 23 14 22 22 40 18 62 -12z m1247 11 c159 -41 283 -179 301 -336 l7 -58
-398 0 -398 0 6 61 c13 147 139 293 287 333 72 19 123 19 195 0z m1920 -15 c9
-14 4 -18 -33 -25 -37 -8 -43 8 -9 24 29 14 34 14 42 1z m842 -4 c26 -19 98
-134 89 -143 -4 -3 -11 -1 -15 7 -6 10 -10 9 -14 -3 -4 -9 -18 -21 -32 -26
-72 -27 -104 74 -34 104 l29 12 -25 24 c-31 29 -58 19 -63 -24 -4 -34 -22 -34
-22 1 0 30 25 63 49 63 9 0 26 -7 38 -15z m103 5 c0 -5 7 -10 16 -10 11 0 14
-5 10 -16 -3 -9 -6 -23 -6 -32 -1 -15 -2 -16 -13 -1 -7 9 -18 14 -24 12 -7 -3
-13 0 -13 6 0 6 5 11 11 11 6 0 8 9 4 20 -4 11 -2 20 4 20 6 0 11 -4 11 -10z
m885 -10 l18 -20 24 22 c30 28 43 15 15 -15 -20 -22 -21 -24 -5 -40 21 -21 10
-35 -13 -16 -14 11 -18 11 -30 -6 -18 -24 -29 -13 -14 15 10 19 8 26 -16 51
-20 21 -23 29 -12 29 8 0 23 -9 33 -20z m-5059 -125 c51 -83 124 -252 153
-357 26 -93 45 -258 32 -271 -14 -14 -18 2 -25 92 -15 177 -113 439 -217 578
-21 29 -39 58 -39 64 0 22 51 -34 96 -106z m3244 91 c0 -13 -28 -26 -58 -26
-22 0 -7 24 19 31 36 10 39 10 39 -5z m2330 4 c0 -5 -16 -10 -35 -10 -19 0
-35 5 -35 10 0 6 16 10 35 10 19 0 35 -4 35 -10z m10 -30 c0 -5 -16 -10 -35
-10 -19 0 -35 5 -35 10 0 6 16 10 35 10 19 0 35 -4 35 -10z m-2873 -35 c136
-29 255 -81 288 -127 11 -17 15 -48 14 -133 -2 -163 -2 -164 -79 -202 -124
-61 -355 -103 -470 -86 l-55 8 -5 60 -5 60 -48 -92 c-26 -51 -53 -93 -60 -93
-24 0 -188 49 -202 60 -7 6 -17 25 -20 41 -8 35 -13 36 -76 4 -93 -48 -95 -48
-134 -13 -46 40 -62 72 -74 144 -11 71 -5 81 55 90 24 3 47 11 51 17 4 6 6 32
4 57 -3 61 21 90 112 134 73 36 181 62 311 76 125 13 320 11 393 -5z m-3037
-57 c1 -160 132 -489 250 -629 42 -50 47 -59 29 -59 -27 0 -149 182 -195 290
-68 161 -128 400 -108 431 13 21 24 6 24 -33z m195 20 c16 -12 45 -58 65 -102
50 -108 55 -126 36 -126 -9 0 -16 5 -16 11 0 7 -9 0 -21 -15 -36 -46 -98 -26
-126 41 -25 61 9 123 67 123 l21 0 -21 29 c-23 33 -57 48 -72 33 -6 -6 -14
-27 -17 -47 -3 -20 -10 -36 -16 -36 -17 0 -17 37 -1 75 12 30 20 36 44 36 16
0 42 -10 57 -22z m555 -101 c43 -83 60 -104 60 -73 0 20 48 56 75 56 51 0 114
-86 115 -158 0 -39 -23 -87 -45 -96 -9 -3 -27 -6 -41 -6 -17 0 -22 -4 -17 -16
4 -11 2 -15 -6 -13 -10 4 -211 379 -211 395 0 3 6 4 13 2 6 -3 32 -43 57 -91z
m177 58 c14 -14 17 -14 32 0 10 8 25 15 34 15 18 0 57 -50 57 -74 0 -25 -13
-19 -32 14 -27 47 -42 38 -34 -20 9 -66 -6 -65 -40 3 -15 28 -27 53 -28 54 -2
2 -31 -8 -66 -22 -41 -16 -67 -22 -74 -15 -9 9 -3 12 84 45 46 18 49 18 67 0z
m-397 -78 c0 -11 -51 -37 -73 -37 -19 0 -3 22 26 34 41 18 47 19 47 3z m4937
5 c12 -7 16 -25 14 -55 -1 -24 -21 -11 -21 13 0 34 -29 11 -42 -33 -10 -32
-10 -41 0 -45 18 -6 14 -23 -4 -20 -13 2 -22 -16 -40 -76 -25 -83 -30 -93 -41
-83 -3 4 5 45 19 92 15 47 22 85 17 85 -5 0 -9 7 -9 15 0 8 6 12 14 9 9 -3 15
5 19 23 6 28 42 83 55 83 4 0 12 -4 19 -8z m-4917 -33 c0 -8 -58 -39 -75 -39
-18 0 0 23 28 35 39 17 47 18 47 4z m4465 -79 l0 -55 -290 0 -290 0 -3 58 -3
57 293 -2 293 -3 0 -55z m-4825 -89 c42 -86 60 -109 60 -77 0 21 49 56 78 56
40 0 99 -67 107 -123 12 -80 -17 -137 -70 -137 -16 0 -25 -6 -25 -15 0 -8 -4
-15 -9 -15 -12 0 -212 391 -205 402 9 15 18 2 64 -91z m4038 58 c3 -9 -3 -7
-17 5 -27 24 -47 9 -37 -28 7 -27 41 -37 49 -13 2 6 8 9 12 5 11 -11 -14 -38
-36 -38 -19 0 -49 35 -49 59 0 8 7 23 17 33 14 16 19 16 37 5 11 -8 22 -20 24
-28z m1487 -54 c-8 -30 -20 -55 -25 -55 -13 0 -13 12 0 46 8 20 8 29 -2 35 -9
6 -6 15 12 34 32 35 37 15 15 -60z m-5355 56 c0 -4 -24 -17 -52 -29 -29 -11
-61 -23 -70 -27 -12 -5 -18 -3 -18 6 0 8 24 24 53 36 56 23 87 28 87 14z
m1613 -250 c71 -101 127 -185 124 -187 -3 -3 -76 -34 -162 -70 l-158 -64 -278
2 -279 3 143 186 142 186 160 66 c88 36 165 65 170 63 6 -1 68 -85 138 -185z
m3532 181 c13 -9 17 -52 5 -52 -24 0 -40 15 -40 36 0 24 15 31 35 16z m-906
-137 c206 -68 378 -128 383 -133 4 -4 -172 -61 -392 -127 -220 -65 -403 -115
-407 -112 -3 4 -1 85 6 179 17 256 23 318 30 318 3 0 175 -56 380 -125z m1087
76 c38 -16 70 -35 72 -41 5 -14 -10 -10 -95 25 -31 12 -59 28 -61 34 -6 17 10
14 84 -18z m-72 -37 c8 -21 -4 -41 -38 -64 -27 -17 -28 -18 -7 -25 24 -7 29
-25 7 -25 -8 0 -27 5 -43 11 l-28 10 45 39 c25 21 41 42 37 47 -5 4 -14 0 -21
-10 -13 -17 -36 -24 -36 -10 0 3 7 15 17 25 20 22 59 24 67 2z m116 -29 c30
-16 43 -42 15 -31 -8 3 -15 4 -15 2 0 -2 -7 -20 -16 -41 -14 -34 -14 -37 0
-32 21 8 29 -8 11 -23 -19 -16 -45 -6 -45 18 0 11 7 36 15 55 8 20 11 38 6 41
-5 3 -19 -19 -31 -49 -12 -30 -26 -55 -31 -55 -13 0 -11 12 6 53 8 20 15 39
15 41 0 3 -7 3 -15 0 -18 -7 -20 7 -3 24 16 16 53 15 88 -3z m-4800 -77 c0
-25 -327 -853 -336 -852 -10 0 -268 603 -261 610 5 5 579 252 590 253 4 1 7
-5 7 -11z m4106 -33 c-4 -10 1 -15 14 -15 23 0 28 -38 8 -58 -21 -21 -37 -13
-58 28 -24 46 -20 60 17 60 18 0 24 -4 19 -15z m320 -81 c-3 -9 -9 -27 -12
-40 -6 -22 -3 -24 35 -24 23 0 41 -4 41 -9 0 -10 -35 -21 -71 -21 -21 0 -29
-8 -42 -40 -8 -22 -20 -40 -26 -40 -15 0 -14 16 4 50 l15 29 -55 3 c-76 4 -74
22 2 26 l62 3 12 39 c7 23 18 40 27 40 9 0 12 -6 8 -16z m-1176 -242 c0 -12
-3 -12 -15 -2 -17 14 -39 4 -31 -16 3 -8 1 -14 -4 -14 -5 0 -12 11 -15 25 -3
14 -7 36 -10 49 -2 12 -2 26 2 30 9 9 73 -54 73 -72z m565 44 c89 -29 173 -72
189 -98 7 -12 -8 -71 -63 -245 -40 -125 -78 -231 -84 -236 -32 -22 -219 19
-322 70 -64 33 -85 51 -85 77 1 23 130 432 144 455 13 20 122 8 221 -23z m704
-21 c13 -20 21 -39 16 -43 -7 -7 -65 55 -65 70 0 20 27 5 49 -27z m-54 -21
c18 -24 24 -39 17 -46 -11 -11 -52 40 -52 66 0 23 4 20 35 -20z m-4435 -56 c0
-4 -4 -8 -10 -8 -6 0 -10 -85 -10 -235 l0 -235 23 0 c22 0 22 0 19 150 -3 146
-2 150 17 150 20 0 21 -5 21 -150 0 -127 2 -150 15 -150 8 0 14 3 14 8 -1 4
-1 82 0 175 1 141 3 167 16 167 13 0 15 -26 15 -175 0 -149 2 -175 15 -175 13
0 15 20 15 121 0 109 2 120 18 117 15 -3 17 -17 17 -121 0 -87 3 -117 13 -117
9 0 12 25 12 90 0 83 1 90 20 90 19 0 20 -7 20 -90 0 -53 4 -90 10 -90 6 0 10
50 10 130 0 123 1 130 20 130 19 0 20 -7 20 -130 0 -109 2 -130 15 -130 13 0
15 28 15 193 0 139 3 197 12 208 7 7 -17 -14 -52 -48 -36 -35 -69 -63 -73 -63
-5 0 -33 20 -64 45 -30 25 -60 42 -66 38 -7 -3 -31 -19 -54 -35 -24 -16 -43
-25 -43 -20 0 5 25 26 55 46 l54 38 54 -46 c30 -25 58 -46 63 -46 19 0 116
108 103 112 -9 3 -2 11 17 21 38 20 45 15 33 -26 -5 -18 -9 -119 -9 -224 l0
-193 41 0 c24 0 38 4 34 10 -9 15 8 12 31 -4 19 -15 19 -15 -1 -30 -11 -8 -21
-10 -23 -5 -6 14 -472 12 -472 -3 0 -6 -3 -9 -6 -5 -3 3 -5 118 -5 255 1 185
-1 251 -10 254 -9 3 -9 10 1 28 12 23 13 23 26 5 8 -10 14 -22 14 -27z m4614
-134 c-58 -97 -52 -90 -65 -77 -8 8 -6 18 5 36 15 22 15 26 -1 46 -16 19 -22
20 -53 11 -46 -13 -50 -13 -50 5 0 8 8 15 18 16 9 0 53 13 97 28 44 15 84 24
88 21 5 -4 -13 -43 -39 -86z m107 -60 c10 -12 10 -22 2 -45 -10 -26 -9 -29 7
-29 26 0 35 -36 16 -65 -21 -32 -72 -35 -81 -5 -6 19 9 60 23 60 14 0 12 70
-2 76 -19 7 -53 -11 -66 -36 -8 -16 -6 -23 10 -37 25 -22 26 -37 2 -31 -18 5
-18 4 0 -31 20 -40 24 -124 7 -168 -14 -38 -65 -90 -111 -114 -48 -25 -139
-25 -193 0 -39 17 -41 17 -80 0 -127 -58 -285 16 -316 148 -40 174 162 317
326 231 27 -15 33 -15 65 2 76 38 165 32 227 -16 l33 -25 0 26 c0 58 96 101
131 59z m-5837 -47 c27 -35 33 -57 16 -57 -10 0 -60 69 -60 82 0 18 21 6 44
-25z m5941 -128 c-6 -9 -11 -8 -21 5 -11 16 -14 14 -24 -23 -11 -42 -41 -61
-76 -47 -22 8 -15 60 9 64 15 3 18 0 13 -16 -4 -11 -2 -23 3 -26 12 -8 31 25
31 53 0 31 31 44 54 21 11 -10 15 -23 11 -31z m-5775 -16 c0 -13 -102 -163
-111 -163 -13 0 -11 24 5 45 10 15 11 25 3 43 -10 21 -15 23 -59 17 -40 -6
-48 -4 -48 9 0 10 9 16 23 16 12 1 51 9 87 20 70 20 100 24 100 13z m5888 -71
c3 -9 -9 -10 -42 -6 -42 6 -48 4 -81 -29 -22 -22 -35 -45 -35 -60 0 -30 -17
-45 -26 -23 -17 44 39 123 96 135 40 8 82 0 88 -17z m-18 -39 c0 -4 -10 -17
-22 -31 l-23 -24 28 7 c30 8 36 -9 17 -46 -13 -23 -3 -24 24 -4 27 20 50 19
42 -1 -9 -24 3 -35 24 -22 25 16 37 3 17 -19 -8 -10 -16 -22 -16 -28 -1 -5 -8
-10 -15 -10 -18 0 -79 -45 -72 -52 3 -3 13 0 21 7 11 9 19 10 26 3 14 -14 -26
-43 -59 -43 -43 0 -39 30 10 74 58 52 54 74 -7 44 -52 -26 -66 -19 -42 21 23
40 22 44 -13 26 -36 -19 -40 -19 -40 -1 0 19 71 105 88 105 6 1 12 -2 12 -6z
m-5820 -28 c7 -8 10 -28 8 -44 -3 -20 1 -32 14 -40 10 -6 18 -19 18 -29 -1
-20 -23 -52 -37 -52 -5 0 -8 -14 -5 -30 5 -38 22 -34 36 8 6 17 16 36 22 42
22 21 64 -16 48 -42 -5 -7 -12 -5 -20 6 -13 19 -18 15 -28 -27 -9 -39 -49 -56
-75 -33 -16 14 -18 23 -11 42 6 15 6 24 0 24 -5 0 -14 9 -20 21 -9 16 -8 26 6
47 10 15 19 42 21 60 3 27 0 32 -18 32 -13 0 -31 -7 -41 -17 -22 -20 -24 -53
-3 -53 8 0 15 -7 15 -15 0 -20 -19 -19 -42 2 -26 23 -22 50 11 84 33 32 80 39
101 14z m710 -6 c55 -25 105 -71 132 -123 15 -29 19 -53 16 -102 -2 -57 0 -65
20 -79 66 -47 -16 -158 -153 -205 -82 -28 -119 -27 -133 6 -7 14 -16 23 -20
20 -15 -9 -125 43 -159 76 -40 39 -56 89 -55 180 0 54 5 77 28 117 28 52 92
103 151 121 51 15 126 10 173 -11z m716 -125 c76 -14 140 -26 141 -28 3 -3
-45 -268 -49 -270 -2 -2 -37 -22 -78 -45 l-75 -43 -125 22 c-160 28 -160 28
-160 52 0 11 10 71 21 134 l22 114 71 44 c39 25 76 45 82 45 6 1 73 -11 150
-25z m3559 -43 c54 -24 105 -67 105 -88 0 -15 -289 -373 -301 -373 -4 0 -10
10 -12 23 -2 12 -5 2 -6 -23 -1 -53 -14 -64 139 120 61 74 117 138 125 142 19
11 111 -92 143 -159 24 -51 27 -70 27 -158 0 -90 -3 -106 -29 -159 -36 -74
-118 -156 -189 -190 -79 -37 -187 -51 -277 -36 -145 24 -284 122 -336 233 -24
54 -26 67 -22 160 3 87 8 111 33 162 50 104 138 175 272 219 98 32 97 34 103
-139 l6 -150 2 217 c1 162 5 218 15 222 28 13 153 -1 202 -23z m-4778 -98 c3
-7 -12 -11 -47 -10 -47 2 -54 -1 -81 -31 -16 -18 -29 -43 -29 -57 0 -28 -17
-34 -26 -10 -9 23 15 72 49 101 25 21 38 24 80 22 28 -2 52 -8 54 -15z m-17
-42 c0 -4 -10 -21 -22 -36 l-21 -28 21 12 c31 16 40 -10 17 -46 l-18 -27 37
22 c39 23 66 21 46 -3 -15 -18 4 -29 29 -15 14 7 22 7 27 -2 4 -6 2 -14 -5
-16 -7 -2 -16 -15 -21 -28 -5 -13 -15 -21 -22 -19 -8 3 -29 -6 -48 -21 l-35
-26 33 7 c36 8 44 -8 12 -25 -26 -14 -72 -9 -78 8 -3 11 11 26 68 71 19 15 22
22 14 31 -9 9 -20 8 -44 -5 -17 -9 -38 -14 -47 -11 -12 5 -11 11 6 35 28 39
26 44 -10 25 -55 -28 -57 -2 -4 55 46 49 65 61 65 42z m160 -202 c0 -7 -9 -26
-20 -44 -33 -53 -150 -92 -150 -49 0 11 6 13 19 9 32 -10 89 21 112 60 21 34
39 46 39 24z m5313 -129 c0 -48 3 -60 16 -60 14 -1 14 -2 -1 -14 -10 -7 -18
-19 -18 -27 -1 -11 -3 -10 -13 2 -8 11 -22 15 -45 11 -17 -2 -32 -1 -32 3 0
15 82 156 88 151 3 -3 5 -33 5 -66z m286 51 c6 -10 8 -21 5 -24 -3 -3 0 -14 7
-25 27 -43 -40 -72 -75 -33 -10 11 -13 22 -8 25 6 3 13 -1 16 -10 7 -19 47
-15 54 5 3 10 -1 12 -17 8 -24 -6 -28 5 -6 23 8 7 12 16 9 22 -3 5 -12 4 -20
-3 -8 -6 -18 -9 -22 -5 -7 8 25 36 40 36 4 0 12 -8 17 -19z m-119 -81 c0 -5
-6 -10 -12 -10 -9 0 -14 -24 -16 -76 -3 -74 -3 -76 18 -69 26 8 24 -12 -3 -29
-26 -17 -32 1 -31 92 1 84 1 85 -8 32 -16 -99 -28 -132 -45 -128 -9 2 -18 9
-21 17 -3 10 0 12 11 8 13 -5 17 4 22 41 3 26 8 59 10 75 3 19 0 27 -10 27
-26 0 -16 19 13 23 52 8 72 7 72 -3z m-4767 -19 c148 -51 250 -178 271 -336
13 -97 -29 -226 -98 -302 l-36 -40 17 -39 c23 -53 23 -202 -1 -264 -41 -109
-131 -200 -239 -243 -72 -28 -202 -28 -274 0 -113 44 -213 150 -242 255 -13
45 -14 46 -66 56 -200 41 -337 219 -322 419 15 199 171 356 368 369 50 4 89 1
121 -9 l46 -15 44 45 c49 51 110 89 171 108 64 20 174 18 240 -4z m4807 -10
c0 -4 11 -6 25 -3 18 3 25 0 25 -12 0 -10 -6 -13 -15 -10 -12 5 -15 -6 -15
-65 0 -39 -4 -71 -9 -71 -5 0 -12 30 -15 68 -4 37 -10 75 -12 85 -3 9 -1 17 5
17 6 0 11 -4 11 -9z m-332 -288 c82 -177 112 -253 108 -269 -8 -32 -68 -61
-151 -74 -136 -22 -284 23 -287 86 -1 11 43 123 96 249 54 127 100 236 103
243 3 6 8 12 12 12 3 0 57 -111 119 -247z m177 207 c-3 -5 -33 -10 -66 -10
-33 0 -59 4 -59 10 0 6 29 10 66 10 41 0 63 -4 59 -10z m-38 -32 c-2 -7 2 -21
10 -30 21 -24 9 -66 -23 -80 -32 -15 -77 0 -83 27 -3 19 -3 19 16 3 35 -32 83
-17 83 25 0 16 -5 19 -30 14 -33 -7 -40 6 -12 22 14 9 11 10 -15 11 -18 0 -33
5 -33 10 0 6 21 10 46 10 32 0 44 -4 41 -12z m-5835 -132 c11 -16 10 -56 -1
-56 -5 0 -16 -2 -24 -6 -10 -3 -16 4 -21 26 -3 18 -4 35 -1 39 7 12 39 9 47
-3z m78 -237 c24 -5 50 -15 57 -21 24 -20 2 -27 -39 -12 -54 19 -93 18 -129
-3 -15 -9 -31 -14 -35 -10 -11 11 16 36 50 46 41 12 44 12 96 0z m4650 -18 c5
-11 10 -28 10 -38 0 -15 -2 -16 -10 -3 -6 10 -10 -69 -10 -232 l0 -248 35 0
35 0 0 201 0 200 33 -3 32 -3 3 -197 2 -198 35 0 34 0 3 148 3 147 28 3 27 3
0 -150 0 -151 55 0 55 0 0 185 0 185 30 0 30 0 0 -185 0 -185 50 0 50 0 0 146
0 145 33 -3 c36 -3 35 6 36 -185 1 -82 4 -103 15 -103 8 0 16 5 18 10 2 7 11
5 23 -4 11 -8 17 -17 13 -21 -4 -4 -158 -6 -342 -6 l-336 2 0 -26 c0 -14 -4
-25 -10 -25 -5 0 -10 11 -10 24 0 13 -6 27 -12 30 -10 5 -10 7 0 12 15 7 18
470 2 476 -11 3 9 68 22 68 4 0 12 -9 18 -19z m-4615 -70 c3 -5 -6 -18 -20
-29 -24 -19 -25 -21 -6 -27 23 -7 46 -33 37 -42 -3 -3 -21 2 -40 12 -33 18
-34 18 -61 -3 -34 -27 -54 -18 -26 12 l21 23 -25 11 c-32 15 -34 37 -2 27 54
-16 63 -16 81 4 21 23 32 26 41 12z m5919 -87 c25 -24 19 -36 -14 -29 -26 6
-31 3 -41 -22 -6 -15 -8 -43 -5 -60 2 -18 1 -33 -4 -33 -5 0 -14 -26 -20 -57
-17 -82 -40 -125 -64 -121 -26 4 -32 24 -8 30 27 7 62 135 41 148 -12 8 -11
11 2 22 9 7 20 29 23 49 7 41 40 89 61 89 7 0 21 -7 29 -16z m-4258 -42 c86
-45 137 -124 136 -216 0 -144 -100 -246 -240 -246 -73 0 -114 15 -166 60 -107
94 -112 252 -11 353 25 25 64 52 87 61 55 20 142 15 194 -12z m-1620 2 c-3 -9
-6 -17 -6 -19 0 -9 -68 -43 -96 -48 -42 -8 -88 5 -92 26 -4 18 13 23 23 7 15
-25 115 -1 144 33 17 21 35 22 27 1z m5894 -26 c-1 -7 -7 -24 -15 -38 -16 -29
-20 -126 -5 -135 13 -8 13 -35 0 -35 -16 0 -40 57 -40 97 0 42 33 123 50 123
5 0 10 -6 10 -12z m-410 -73 l16 -48 22 52 c31 76 45 55 18 -27 -13 -37 -29
-92 -36 -122 -7 -30 -17 -61 -22 -67 -21 -26 -24 -2 -9 57 15 58 15 63 -7 125
-25 72 -27 88 -10 83 6 -2 19 -26 28 -53z m-5535 -52 c5 -26 3 -33 -8 -33 -15
0 -30 56 -20 73 8 13 20 -5 28 -40z m-41 21 c3 -9 6 -27 6 -41 0 -39 -25 -22
-28 20 -3 37 11 50 22 21z m5750 -16 c7 -29 -5 -40 -39 -36 -19 2 -29 10 -31
23 -6 39 60 51 70 13z m-5664 -92 c0 -8 -9 -22 -21 -30 -21 -14 -21 -15 10
-30 17 -9 31 -20 31 -25 0 -18 -14 -18 -45 1 l-34 19 -30 -22 c-38 -28 -53
-18 -22 15 l22 24 -32 11 c-47 16 -25 34 24 19 34 -10 40 -9 60 10 25 26 37
28 37 8z m4300 -22 c64 -35 122 -104 140 -167 16 -60 9 -161 -15 -212 -45 -93
-158 -165 -260 -165 -102 0 -215 72 -260 165 -24 50 -31 152 -15 211 48 169
253 254 410 168z m-4232 -112 c41 -28 60 -36 32 -13 -22 18 -23 20 -7 26 23 9
47 -12 47 -40 0 -30 -18 -36 -52 -18 -27 13 -28 13 -28 -12 0 -34 -18 -32 -26
3 -3 15 -8 33 -10 40 -4 14 3 32 13 32 2 0 17 -8 31 -18z m5652 -140 c12 -46
13 -102 1 -102 -11 0 -21 25 -21 56 0 15 -6 24 -15 24 -17 0 -19 23 -4 51 13
26 26 17 39 -29z m-4337 -371 c98 -210 177 -386 175 -391 -3 -10 -890 511
-895 526 -3 10 516 255 531 250 6 -1 90 -174 189 -385z m4047 334 c0 -11 -12
-15 -49 -15 l-49 0 4 -82 c3 -46 6 -100 8 -120 3 -26 0 -38 -9 -38 -17 0 -25
46 -25 151 l0 89 -50 0 c-46 0 -60 7 -43 23 3 4 53 7 110 7 85 0 103 -3 103
-15z m-5290 -59 c0 -1 -18 -39 -40 -83 -22 -45 -37 -89 -34 -97 4 -10 1 -16
-7 -16 -8 0 -24 -16 -37 -36 -28 -43 -49 -35 -22 9 11 18 20 36 20 40 0 4 -20
17 -45 28 -47 21 -50 25 -36 48 14 21 175 118 189 113 6 -2 12 -5 12 -6z
m4571 -8 c1 -18 -4 -362 -6 -420 l-2 -48 213 0 c161 0 213 3 217 13 3 9 8 9
21 -2 9 -8 15 -18 13 -24 -1 -5 -95 -8 -235 -8 -176 2 -232 -1 -232 -10 0 -7
-3 -10 -6 -6 -3 3 -5 112 -5 242 1 163 -1 235 -9 230 -13 -8 -13 1 0 26 12 21
30 25 31 7z m1079 -19 c0 -6 -9 -13 -19 -16 -19 -5 -19 -5 0 -24 10 -10 19
-26 19 -34 0 -23 -27 -18 -33 6 -7 25 -40 22 -45 -4 -2 -11 3 -17 17 -17 28 0
37 -20 12 -27 -20 -5 -22 -12 -19 -59 2 -30 -1 -53 -7 -54 -5 0 -11 25 -13 55
-2 40 -7 55 -17 55 -17 0 -20 16 -5 25 6 3 10 17 10 30 0 13 8 29 18 35 15 9
14 10 -5 5 -27 -7 -68 10 -43 19 52 17 130 20 130 5z m-230 -9 c0 -5 -20 -10
-45 -10 -25 0 -45 5 -45 10 0 6 20 10 45 10 25 0 45 -4 45 -10z m-5295 -51
c64 -31 88 -57 42 -45 -21 5 -30 -5 -80 -84 -32 -49 -57 -92 -57 -95 0 -3 9
-4 19 -2 30 3 28 -17 -2 -27 -64 -23 -54 30 27 149 41 60 53 85 43 85 -2 0
-32 -36 -66 -80 -69 -89 -111 -119 -131 -95 -13 16 -7 45 10 45 5 0 10 -8 10
-17 0 -22 47 22 101 94 43 57 46 68 24 77 -13 5 -22 26 -10 26 2 0 34 -14 70
-31z m5293 14 c2 -9 -9 -13 -37 -13 -37 0 -50 8 -36 22 10 10 68 3 73 -9z
m-5014 -85 c14 -23 1 -45 -44 -75 -28 -19 -30 -23 -12 -23 23 0 38 -15 23 -25
-12 -7 -81 21 -81 33 0 5 18 17 41 27 47 22 69 52 44 61 -9 4 -25 -2 -35 -11
-27 -24 -38 -11 -15 15 22 25 63 23 79 -2z m4458 -23 c10 -6 34 -33 53 -58 21
-28 44 -47 55 -47 11 0 20 4 20 8 0 9 44 32 60 32 5 0 5 -12 -1 -29 -9 -26
-14 -29 -56 -27 -38 1 -49 7 -74 36 -61 72 -81 90 -99 90 -34 0 -80 -51 -126
-142 -45 -87 -80 -124 -106 -116 -8 3 0 11 18 21 22 11 41 37 68 94 46 94 68
123 108 145 30 17 48 15 80 -7z m-4652 -8 c0 -18 5 -23 23 -23 16 1 23 -5 25
-21 4 -25 -7 -30 -25 -12 -13 13 -54 -34 -89 -102 -22 -44 -44 -64 -44 -40 0
5 20 51 45 102 25 51 45 99 45 106 0 7 5 13 10 13 6 0 10 -10 10 -23z m1843
-97 c68 -26 143 -82 191 -146 80 -104 107 -263 67 -382 -64 -189 -220 -304
-411 -304 -250 0 -441 204 -428 456 15 287 310 478 581 376z m-1278 -169 c80
-129 90 -142 102 -125 11 15 10 20 -4 36 -21 23 -11 35 11 13 9 -9 16 -12 16
-6 0 6 5 11 11 11 6 0 8 -7 5 -16 -4 -9 -1 -23 5 -31 7 -7 9 -17 5 -20 -4 -4
-10 -2 -15 5 -5 8 -11 7 -22 -7 -15 -16 -11 -27 57 -136 66 -107 72 -121 61
-140 -18 -28 -90 -63 -146 -71 -25 -4 -48 -10 -51 -13 -10 -12 -304 7 -356 23
-62 19 -104 50 -104 77 0 10 59 123 131 251 195 347 179 322 193 307 7 -8 52
-79 101 -158z m3345 -123 l0 -273 -133 -87 -132 -87 -230 -1 c-126 0 -236 -1
-242 0 -10 0 -13 61 -13 269 l0 268 138 91 137 92 238 0 237 0 0 -272z m1474
215 c9 -23 -3 -34 -24 -23 -27 14 -26 15 -40 -36 -11 -39 -11 -47 1 -55 12 -8
12 -11 -2 -22 -8 -6 -23 -43 -33 -82 -10 -38 -22 -75 -28 -82 -14 -18 -48 -16
-48 2 0 8 7 15 15 15 9 0 20 20 30 52 17 60 19 88 5 88 -5 0 -10 7 -10 15 0 8
6 15 14 15 8 0 17 15 21 37 4 21 13 49 21 64 20 39 65 46 78 12z m-4 -96 c-23
-50 -25 -105 -5 -133 14 -21 11 -34 -7 -34 -5 0 -16 17 -24 37 -19 44 -12 104
16 151 28 46 43 30 20 -21z m219 9 c26 -41 29 -137 6 -156 -22 -18 -27 -8 -14
29 14 39 5 91 -21 124 -24 30 -25 37 -6 37 8 0 24 -15 35 -34z m-625 -18 c7
-18 17 -42 21 -53 6 -17 10 -12 23 28 9 26 21 47 29 47 17 0 16 -9 -1 -52 -8
-18 -24 -72 -36 -118 -12 -47 -26 -89 -31 -94 -18 -19 -20 3 -5 62 16 58 15
61 -9 126 -28 74 -30 86 -14 86 5 0 16 -15 23 -32z m566 22 c0 -6 -10 -24 -21
-39 -21 -28 -21 -30 -3 -60 22 -37 9 -55 -17 -23 l-19 24 -11 -26 c-7 -14 -18
-26 -26 -26 -17 0 -16 4 3 42 15 30 15 34 -1 65 -22 40 -11 57 15 23 l19 -25
21 28 c22 28 40 35 40 17z m-2735 -138 c10 -62 16 -114 14 -117 -8 -8 -234 83
-234 94 0 6 42 45 94 87 67 53 97 71 101 62 4 -7 15 -64 25 -126z m2353 35 c3
-25 0 -27 -31 -27 -30 0 -34 3 -34 24 0 17 6 26 21 29 33 7 41 2 44 -26z
m-873 -57 c39 -20 39 -20 80 0 26 13 61 20 96 20 176 -1 281 -186 186 -329
-58 -87 -189 -123 -282 -76 -40 20 -40 20 -80 0 -26 -13 -61 -20 -100 -20
-185 0 -287 214 -166 348 20 22 54 48 76 58 54 25 140 25 190 -1z m-1590 -66
l122 -45 17 -96 c9 -53 15 -98 12 -100 -7 -8 -421 154 -421 165 0 9 133 122
144 122 3 0 59 -21 126 -46z m2830 -94 c23 -26 32 -113 15 -146 -14 -25 -62
-34 -75 -14 -4 6 6 10 23 10 33 0 42 14 42 63 l0 31 -20 -22 c-25 -26 -47 -28
-72 -5 -20 18 -24 73 -6 91 19 19 73 14 93 -8z m-2885 -87 c107 -41 197 -79
201 -85 9 -14 33 -167 27 -173 -6 -6 -598 219 -598 227 0 4 30 32 68 62 49 40
72 54 87 49 11 -3 108 -39 215 -80z m2760 8 c0 -30 5 -52 13 -55 10 -5 10 -7
0 -12 -7 -3 -13 -19 -13 -35 0 -16 -4 -29 -10 -29 -5 0 -10 14 -10 31 0 16 -4
28 -9 24 -5 -3 -12 -1 -16 5 -3 6 1 13 9 16 11 4 16 19 16 46 0 39 0 40 -32
33 -31 -6 -32 -5 -14 10 11 8 30 15 43 15 21 0 23 -4 23 -49z m-130 9 c37 -20
53 -118 24 -158 -15 -22 -74 -32 -74 -12 0 6 11 10 25 10 28 0 45 25 45 66 l0
27 -23 -21 c-30 -28 -62 -28 -81 0 -43 60 18 124 84 88z m-138 -47 c10 -9 18
-27 18 -40 0 -13 7 -26 15 -29 36 -14 23 -86 -19 -106 -36 -16 -76 12 -76 53
0 16 -7 40 -16 54 -17 26 -8 56 24 74 24 14 33 13 54 -6z m-5495 -29 c13 -4
22 -12 20 -18 -2 -6 -14 -42 -27 -81 -26 -79 -39 -74 -16 6 20 65 20 75 2 82
-11 4 -20 -13 -36 -64 -11 -38 -25 -69 -30 -69 -5 0 -2 21 6 48 8 26 18 62 21
80 4 24 10 31 20 27 8 -3 26 -8 40 -11z m2939 -106 l292 -110 12 -75 c6 -41 9
-77 6 -80 -7 -7 -739 272 -742 283 -4 15 110 103 126 98 8 -3 146 -55 306
-116z m2424 112 c0 -5 -15 -16 -34 -24 -28 -12 -33 -19 -29 -36 4 -15 9 -18
16 -11 17 17 55 13 77 -9 29 -29 25 -66 -9 -101 -34 -33 -40 -35 -67 -13 -18
15 -18 15 8 10 56 -12 94 73 43 96 -20 9 -28 8 -44 -6 -19 -17 -20 -17 -35 13
-24 45 -20 57 22 74 46 19 52 20 52 7z m-5480 -6 c0 -3 -14 -10 -31 -16 l-30
-10 22 -24 c12 -13 19 -27 15 -31 -7 -7 -55 45 -56 60 0 4 10 12 23 17 25 10
57 13 57 4z m380 -59 c0 -3 -10 -19 -22 -36 -16 -21 -23 -48 -26 -94 -5 -73
-22 -89 -22 -21 0 46 14 97 38 134 13 20 32 30 32 17z m-182 -23 c2 -8 -3 -10
-14 -5 -12 4 -15 2 -10 -8 3 -8 9 -22 12 -32 5 -14 11 -9 26 23 25 50 35 46
13 -5 -8 -21 -14 -40 -11 -42 2 -2 9 10 16 26 8 21 18 30 31 28 36 -6 42 -22
24 -63 -10 -22 -19 -34 -22 -27 -2 7 1 22 7 33 17 33 1 39 -24 9 -20 -23 -56
-36 -56 -19 0 3 -12 6 -27 5 -19 0 -29 6 -31 20 -4 17 -2 18 12 6 23 -19 32
-6 16 25 -12 22 -12 27 0 34 18 11 32 8 38 -8z m5128 0 c3 -9 18 -25 35 -34
40 -23 41 -77 3 -107 -28 -22 -69 -28 -79 -11 -4 6 5 10 21 10 52 0 85 60 49
90 -12 10 -20 9 -41 -5 -32 -21 -41 -14 -20 17 24 34 20 41 -19 34 -20 -4 -35
-3 -35 3 0 25 80 29 86 3z m-4833 -9 c4 -2 7 -24 7 -47 0 -45 -44 -146 -67
-153 -7 -3 1 22 17 54 16 32 32 75 36 96 6 33 4 37 -15 37 -24 0 -52 -51 -32
-58 15 -5 3 -22 -15 -22 -18 0 -18 27 0 63 8 15 11 27 7 27 -4 0 -16 -18 -26
-40 -10 -22 -22 -40 -27 -40 -13 0 -10 12 12 47 14 24 15 31 5 26 -16 -5 -20
8 -8 21 8 7 90 -1 106 -11z m4712 -34 c-4 -5 -15 -9 -26 -9 -10 0 -19 -4 -19
-10 0 -5 12 -10 26 -10 14 0 34 -5 45 -10 39 -21 13 -120 -32 -120 -11 0 -19
7 -19 16 0 10 6 14 14 11 21 -8 38 17 34 50 -2 20 -9 29 -25 31 -13 2 -23 -1
-23 -7 0 -22 -19 -10 -34 21 -9 17 -15 32 -14 33 2 1 17 7 33 12 32 11 49 8
40 -8z m-97 -22 c3 -16 1 -17 -16 -6 -27 17 -52 -3 -52 -42 0 -27 2 -28 25
-17 46 21 99 -37 75 -82 -13 -24 -56 -27 -87 -5 -42 30 -50 117 -15 158 20 23
66 19 70 -6z m-4680 -48 c30 -11 28 -22 -3 -17 -19 4 -23 2 -15 -7 19 -22 -15
-65 -39 -50 -5 2 -14 -8 -21 -23 -7 -15 -15 -22 -17 -15 -2 7 7 35 20 62 18
38 21 51 11 51 -8 0 -14 5 -14 10 0 10 32 6 78 -11z m334 -18 c-6 -3 -18 -33
-27 -66 -17 -61 -35 -93 -35 -64 0 9 9 41 19 72 11 30 17 58 14 61 -18 18 -34
-1 -51 -56 -11 -34 -24 -64 -30 -66 -6 -2 -2 24 9 58 10 34 19 70 19 80 0 18
2 18 46 3 25 -9 42 -18 36 -22z m4202 26 c15 -11 18 -26 17 -71 0 -32 -3 -62
-7 -67 -7 -13 20 -11 33 2 7 7 13 7 17 0 6 -9 -42 -41 -62 -41 -5 0 -9 37 -8
83 1 67 -2 82 -14 82 -11 0 -15 -10 -13 -33 1 -40 -20 -39 -25 2 -6 47 26 69
62 43z m-4366 -25 c21 -14 3 -44 -22 -36 -26 8 -45 24 -27 24 7 0 9 5 6 10 -7
12 25 13 43 2z m4262 -12 c35 -18 55 -131 28 -158 -17 -17 -43 -15 -58 3 -16
20 -5 32 14 16 22 -19 36 -4 36 36 0 34 -1 35 -18 20 -25 -23 -48 -21 -66 5
-21 30 -20 44 4 68 22 22 33 24 60 10z m-4040 -50 c0 -5 -7 -7 -16 -3 -12 4
-15 2 -10 -8 3 -8 9 -22 13 -33 5 -16 9 -14 24 15 22 42 25 22 4 -29 -9 -20
-19 -32 -23 -27 -4 6 -18 10 -32 10 -17 0 -26 6 -28 20 -3 20 -3 20 12 1 22
-27 33 -12 15 20 -12 23 -11 27 5 40 19 13 36 11 36 -6z m3920 11 c0 -5 -9
-13 -21 -16 -29 -10 -20 -40 13 -40 53 -1 74 -47 42 -93 -8 -12 -24 -22 -35
-22 -26 0 -24 13 4 25 14 7 22 19 22 35 0 21 -4 25 -31 24 -24 -1 -34 5 -47
28 -19 33 -15 45 17 58 28 12 36 12 36 1z m-3607 -14 c23 -2 22 -18 -3 -24
-22 -6 -34 -32 -25 -56 7 -17 -10 -32 -24 -22 -6 3 -4 22 5 47 20 59 17 60
-13 3 -14 -27 -28 -45 -30 -38 -2 6 3 25 12 42 10 21 12 31 4 31 -8 0 -7 5 2
16 8 10 20 13 33 9 12 -4 29 -7 39 -8z m-158 -52 c-14 -28 -26 -71 -28 -98 -6
-66 -17 -72 -17 -8 0 54 19 112 47 143 25 28 24 17 -2 -37z m-81 35 c30 -11
31 -15 10 -65 -18 -45 -31 -40 -15 6 16 46 4 49 -31 9 -19 -22 -27 -28 -23
-15 19 55 27 75 30 75 2 0 15 -4 29 -10z m1484 -2 c19 -19 14 -29 -11 -23 -20
5 -25 1 -34 -29 -8 -24 -8 -37 0 -45 8 -8 8 -11 0 -11 -7 0 -17 -24 -23 -54
-14 -68 -31 -92 -56 -81 -17 7 -17 8 -2 12 11 3 22 21 28 46 6 23 13 47 15 54
2 6 -1 13 -7 15 -8 3 -6 12 5 28 9 14 17 31 17 40 0 21 28 60 44 60 6 0 17 -5
24 -12z m2283 -59 c33 -69 43 -99 31 -99 -5 0 -21 27 -36 61 -14 33 -30 57
-36 54 -6 -4 -10 5 -10 20 0 41 22 26 51 -36z m-3446 17 c-12 -17 -15 -36 -11
-56 6 -33 -9 -41 -19 -10 -8 24 2 59 23 83 22 25 27 13 7 -17z m3310 -21 c-5
-47 -4 -55 10 -55 14 0 16 7 10 40 -8 47 2 53 17 9 6 -18 16 -28 23 -25 20 7
27 -6 10 -18 -12 -9 -13 -18 -6 -43 12 -41 -6 -45 -20 -5 -8 24 -14 28 -38 24
-16 -2 -31 0 -34 5 -5 8 6 77 18 111 11 30 17 7 10 -43z m-3246 -24 c-7 -28
-16 -51 -21 -51 -11 0 -1 79 13 96 19 23 22 9 8 -45z m-111 38 c-2 -6 -8 -10
-13 -10 -5 0 -11 4 -13 10 -2 6 4 11 13 11 9 0 15 -5 13 -11z m1208 -42 c-11
-33 -13 -54 -6 -79 12 -40 12 -38 1 -38 -16 0 -34 60 -27 92 7 34 34 83 43 75
2 -3 -2 -25 -11 -50z m2096 -28 c29 -80 33 -99 20 -99 -5 0 -17 27 -27 60 -10
34 -24 60 -32 60 -8 0 -13 12 -13 31 0 51 23 29 52 -52z m1302 65 c24 -24 19
-34 -16 -32 -27 3 -32 -1 -40 -27 -5 -16 -6 -42 -4 -57 3 -16 2 -28 -3 -28 -5
0 -16 -33 -26 -73 -19 -82 -36 -110 -61 -105 -25 4 -28 25 -6 30 27 7 62 135
41 148 -12 8 -11 11 2 22 9 7 20 29 23 49 7 41 40 89 61 89 7 0 21 -7 29 -16z
m-3229 -14 c24 -26 31 -99 12 -125 -20 -26 -32 -14 -17 15 14 26 5 83 -15 100
-16 14 -20 30 -7 30 5 0 17 -9 27 -20z m-1866 1 c18 -12 7 -41 -19 -48 -11 -3
-20 -12 -20 -19 0 -8 -4 -14 -10 -14 -13 0 -13 3 6 50 17 42 21 45 43 31z
m835 -11 c21 -8 26 -14 18 -23 -6 -7 -16 -34 -22 -60 -7 -26 -16 -47 -21 -47
-12 0 -11 10 7 64 9 26 14 50 11 53 -14 14 -35 -9 -47 -51 -7 -26 -17 -49 -23
-53 -6 -4 -8 3 -3 18 4 13 12 45 19 70 6 26 16 45 22 43 5 -2 23 -8 39 -14z
m555 -21 l19 -41 12 36 c6 20 16 36 21 36 13 0 12 -8 -10 -76 -10 -32 -23 -74
-28 -93 -4 -19 -15 -37 -22 -39 -10 -3 -12 0 -7 14 17 42 18 94 2 140 -9 26
-16 51 -16 56 0 19 12 5 29 -33z m-831 -54 c133 -41 247 -75 252 -75 5 0 13
12 16 26 5 19 12 24 25 21 10 -3 20 0 22 7 3 6 8 7 13 2 5 -5 4 -11 -3 -13 -7
-3 -13 -11 -13 -19 0 -8 -10 -18 -22 -23 -19 -7 -8 -13 67 -36 50 -15 94 -31
99 -36 17 -15 -15 -10 -94 15 -103 33 -230 72 -260 81 -20 6 -23 5 -12 -6 19
-20 14 -49 -10 -58 -13 -5 -26 -7 -30 -5 -4 3 -9 -5 -13 -16 -5 -17 -25 -29
-25 -15 0 15 35 92 46 101 11 9 4 14 -29 23 -159 47 -297 93 -297 101 0 5 6 7
13 5 6 -2 121 -38 255 -80z m189 68 c4 -11 -3 -24 -23 -40 -16 -12 -23 -23
-16 -23 6 0 12 -5 12 -11 0 -13 -52 -8 -57 6 -2 6 13 19 32 29 35 19 46 36 24
36 -7 0 -18 -8 -25 -17 -11 -15 -13 -16 -14 -2 0 35 55 54 67 22z m1047 3 c20
27 32 10 12 -17 -14 -21 -14 -25 0 -47 20 -30 10 -41 -15 -18 -18 17 -19 16
-26 -3 -3 -12 -11 -21 -16 -21 -12 0 -12 27 1 35 15 9 12 41 -5 55 -8 7 -12
17 -9 22 3 5 14 2 25 -8 18 -17 20 -16 33 2z m277 -3 c6 9 17 17 25 17 13 0
12 -5 -5 -28 -18 -27 -19 -31 -5 -51 19 -26 8 -44 -11 -18 -12 16 -13 16 -28
-5 -20 -30 -31 -18 -15 16 9 21 9 32 0 47 -19 30 -14 44 9 23 19 -17 21 -18
30 -1z m-1417 -31 c-8 -2 -14 -8 -14 -13 0 -5 -4 -9 -10 -9 -5 0 -10 7 -10 15
0 8 -5 15 -11 15 -5 0 -7 5 -4 10 4 6 10 8 15 5 5 -3 12 0 15 5 5 7 12 5 20
-7 12 -15 11 -19 -1 -21z m3014 16 c7 -7 12 -20 12 -30 0 -9 9 -22 19 -28 26
-13 35 -44 21 -70 -12 -23 -66 -54 -80 -45 -18 11 -10 25 13 25 34 0 65 36 50
58 -6 9 -20 16 -31 14 -17 -2 -20 2 -19 30 2 30 0 33 -25 31 -27 -2 -35 6 -21
20 11 11 48 8 61 -5z m-1688 -8 c0 -5 -14 -10 -31 -10 -17 0 -28 4 -24 10 3 6
17 10 31 10 13 0 24 -4 24 -10z m3130 -10 c0 -6 -7 -25 -16 -42 -16 -30 -15
-96 1 -145 11 -34 -12 -29 -30 7 -20 39 -19 96 5 148 17 39 40 56 40 32z m208
-40 c34 -50 25 -160 -13 -160 -17 0 -20 16 -5 25 18 11 11 98 -10 133 -11 18
-20 35 -20 38 0 15 27 -6 48 -36z m-3788 10 c0 -15 -7 -20 -28 -20 -21 0 -28
5 -29 20 -1 16 4 20 28 20 22 0 29 -5 29 -20z m460 10 c0 -5 -13 -10 -30 -10
-16 0 -30 5 -30 10 0 6 14 10 30 10 17 0 30 -4 30 -10z m-980 -8 c0 -16 -45
-62 -60 -62 -11 0 -24 -9 -30 -21 -20 -36 -23 -12 -5 40 16 49 17 50 56 48 21
-1 39 -3 39 -5z m4243 2 c4 -4 -2 -19 -13 -34 -24 -34 -25 -44 -4 -76 23 -34
7 -45 -18 -14 -12 14 -23 20 -25 14 -2 -6 -10 -20 -18 -30 -22 -30 -30 -7 -12
32 17 34 17 37 -3 64 -11 15 -20 31 -20 34 0 14 23 5 39 -16 l18 -21 19 26
c20 28 26 31 37 21z m-4223 -44 c0 -35 -25 -90 -41 -90 -5 0 -3 13 6 30 8 16
15 43 15 60 0 16 5 30 10 30 6 0 10 -14 10 -30z m1903 -1 c8 -12 5 -28 -10
-58 l-21 -42 30 6 c23 5 29 4 26 -6 -5 -16 -78 -33 -90 -21 -4 4 3 23 17 42
30 40 34 83 8 78 -10 -2 -19 -13 -21 -26 -2 -12 -8 -22 -13 -22 -13 0 -11 44
3 58 17 17 58 11 71 -9z m637 11 c0 -12 -40 -33 -48 -25 -4 4 2 13 12 21 23
16 36 18 36 4z m8 -32 c-3 -7 -15 -14 -29 -16 -23 -2 -23 -2 -5 13 24 18 39
20 34 3z m192 -13 c0 -8 -4 -15 -10 -15 -5 0 -10 7 -10 15 0 8 5 15 10 15 6 0
10 -7 10 -15z m1104 -17 c7 -29 -5 -40 -39 -36 -19 2 -29 10 -31 23 -6 39 60
51 70 13z m-3719 -59 c5 -6 4 -9 -4 -9 -7 0 -9 -4 -6 -10 7 -12 -25 -13 -43
-2 -7 5 -10 16 -6 26 6 17 38 14 59 -5z"/>
<path d="M2232 5449 c-5 -12 -6 -38 -3 -58 5 -27 12 -37 28 -39 28 -4 45 27
41 76 -3 32 -7 37 -31 40 -20 3 -29 -2 -35 -19z"/>
<path d="M2135 5407 c-19 -27 -19 -32 1 -52 21 -21 44 -3 44 35 0 36 -25 46
-45 17z"/>
<path d="M2949 5449 c-13 -25 -4 -82 15 -98 28 -24 65 43 52 94 -8 32 -50 35
-67 4z"/>
<path d="M2632 5408 c-16 -16 -15 -43 3 -58 21 -18 47 5 43 39 -3 29 -27 38
-46 19z"/>
<path d="M4818 5309 c-24 -13 -23 -46 2 -86 22 -37 54 -43 70 -14 15 30 12 56
-11 85 -22 28 -34 31 -61 15z"/>
<path d="M937 5212 c-23 -26 -22 -85 2 -106 27 -24 63 -17 79 16 11 23 10 32
-3 57 -13 26 -42 51 -58 51 -2 0 -11 -8 -20 -18z"/>
<path d="M5385 5194 c-10 -11 -15 -29 -13 -53 2 -29 8 -37 26 -39 45 -7 67 41
42 89 -13 23 -33 24 -55 3z"/>
<path d="M5816 5191 c-21 -23 -18 -70 7 -85 38 -24 73 36 47 84 -13 25 -32 26
-54 1z"/>
<path d="M4280 5248 l-35 -11 41 -18 c23 -10 57 -36 77 -58 19 -22 38 -37 41
-33 3 3 6 23 6 44 0 39 -27 78 -54 78 -8 0 -20 2 -28 4 -7 2 -29 -1 -48 -6z"/>
<path d="M4216 5192 c-3 -5 15 -13 39 -20 24 -6 60 -26 79 -43 40 -34 48 -26
15 15 -35 44 -117 74 -133 48z"/>
<path d="M4135 5073 c-33 -48 -111 -161 -173 -249 -61 -89 -112 -164 -112
-168 0 -3 7 -6 15 -6 9 0 18 -7 21 -15 4 -10 13 -13 25 -10 12 4 27 -2 42 -17
23 -23 61 -30 84 -15 6 4 54 71 107 150 53 78 123 181 157 229 52 75 59 90 49
108 -14 27 -84 70 -124 77 -30 5 -34 1 -91 -84z m95 53 c0 -17 -14 -29 -23
-20 -8 8 3 34 14 34 5 0 9 -6 9 -14z m-36 -64 c-29 -46 -97 -143 -186 -264
-47 -64 -88 -123 -90 -129 -2 -7 -10 -9 -16 -5 -13 8 26 71 128 206 31 41 80
110 109 153 29 42 57 74 62 71 6 -3 3 -17 -7 -32z m126 26 c0 -7 -43 -71 -95
-143 -52 -71 -125 -178 -162 -237 -37 -60 -74 -108 -81 -108 -8 0 -10 5 -6 13
66 111 136 216 214 322 53 72 99 138 103 148 7 20 27 23 27 5z"/>
<path d="M3830 4576 c0 -43 3 -56 15 -56 8 0 24 -9 34 -19 19 -19 20 -18 77
20 44 29 53 39 37 39 -12 0 -25 -5 -28 -10 -9 -14 -27 -1 -21 15 8 23 -22 41
-45 27 -25 -16 -27 -15 -31 10 -2 13 -11 24 -20 26 -15 3 -18 -5 -18 -52z"/>
<path d="M1700 5238 c-25 -4 -52 -11 -60 -14 -8 -4 -21 -8 -28 -10 -23 -4 -95
-55 -124 -86 -53 -56 -85 -127 -102 -220 l-5 -28 373 0 373 0 -9 50 c-11 60
-50 142 -91 190 -75 87 -214 138 -327 118z m136 -113 c27 -8 65 -26 84 -40 41
-30 92 -94 84 -106 -8 -14 -491 -11 -500 2 -17 29 120 142 185 152 56 9 99 6
147 -8z"/>
<path d="M1651 5103 c-24 -9 -65 -36 -90 -62 l-46 -46 117 -3 c64 -1 172 -1
239 0 l122 3 -40 40 c-21 23 -57 49 -78 60 -53 26 -165 30 -224 8z"/>
<path d="M4596 5144 c-26 -25 -16 -49 19 -49 27 0 30 3 30 30 0 35 -24 45 -49
19z"/>
<path d="M2835 5109 c-207 -28 -381 -99 -373 -152 6 -41 28 -42 169 -9 153 36
306 62 362 62 47 0 47 -10 2 -100 -19 -38 -31 -71 -27 -74 14 -9 305 14 370
29 115 27 192 69 192 106 0 32 -71 78 -170 111 -90 29 -104 31 -275 34 -99 1
-211 -2 -250 -7z"/>
<path d="M2795 4869 c-162 -66 -168 -69 -163 -74 5 -5 156 -35 175 -35 12 0
118 148 111 155 -2 2 -57 -19 -123 -46z"/>
<path d="M2460 4896 c0 -9 5 -16 10 -16 6 0 10 4 10 9 0 6 -4 13 -10 16 -5 3
-10 -1 -10 -9z"/>
<path d="M2891 4831 c-54 -81 -54 -82 -52 -154 1 -39 4 -73 5 -75 9 -9 79 136
83 172 2 22 9 57 15 77 20 69 2 62 -51 -20z"/>
<path d="M3467 4884 c-66 -35 -155 -51 -347 -65 -91 -6 -166 -12 -167 -12 -1
-1 2 -45 5 -97 l7 -95 100 -3 c115 -4 182 7 315 49 134 42 136 45 144 157 4
50 3 92 -1 91 -4 0 -29 -12 -56 -25z"/>
<path d="M2481 4859 c-68 -16 -126 -31 -129 -34 -7 -6 48 -65 60 -65 8 0 185
106 203 121 13 12 6 11 -134 -22z"/>
<path d="M2550 4815 c-58 -36 -110 -68 -116 -72 -16 -11 -5 -113 12 -120 7 -2
41 10 76 29 l63 33 0 54 c0 54 0 55 45 81 43 25 57 49 35 57 -6 2 -58 -26
-115 -62z"/>
<path d="M2672 4720 c0 -19 2 -27 5 -17 2 9 2 25 0 35 -3 9 -5 1 -5 -18z"/>
<path d="M2803 4685 c0 -22 2 -30 4 -17 2 12 2 30 0 40 -3 9 -5 -1 -4 -23z"/>
<path d="M2701 4694 c0 -11 3 -14 6 -6 3 7 2 16 -1 19 -3 4 -6 -2 -5 -13z"/>
<path d="M2682 4650 c0 -19 2 -27 5 -17 2 9 2 25 0 35 -3 9 -5 1 -5 -18z"/>
<path d="M2782 4625 c0 -16 2 -22 5 -12 2 9 2 23 0 30 -3 6 -5 -1 -5 -18z"/>
<path d="M2811 4594 c0 -11 3 -14 6 -6 3 7 2 16 -1 19 -3 4 -6 -2 -5 -13z"/>
<path d="M377 4992 c-37 -40 -7 -122 43 -122 25 0 54 43 45 69 -9 28 -44 71
-59 71 -7 0 -20 -8 -29 -18z"/>
<path d="M1073 4947 c-30 -13 -44 -57 -32 -99 23 -83 81 -130 116 -95 9 9 18
38 21 66 7 81 -51 153 -105 128z"/>
<path d="M4660 4870 l0 -40 275 0 275 0 0 40 0 40 -275 0 -275 0 0 -40z"/>
<path d="M500 4720 c-42 -42 -5 -173 55 -195 79 -28 90 145 13 199 -30 21 -44
20 -68 -4z"/>
<path d="M1878 4699 l-146 -60 80 -115 c58 -83 86 -114 101 -115 17 -1 18 -2
4 -6 -15 -4 -12 -12 20 -59 21 -29 42 -54 47 -54 22 0 264 105 255 111 -8 5
-8 9 1 14 7 4 16 2 21 -6 5 -9 11 -10 18 -4 11 11 -220 349 -241 352 -7 1 -79
-26 -160 -58z m156 36 c-6 -16 -24 -21 -24 -7 0 11 11 22 21 22 5 0 6 -7 3
-15z m-40 -60 c-6 -16 -24 -21 -24 -7 0 11 11 22 21 22 5 0 6 -7 3 -15z m-34
-55 c0 -5 -5 -10 -11 -10 -5 0 -7 5 -4 10 3 6 8 10 11 10 2 0 4 -4 4 -10z
m-33 -52 c-3 -8 -6 -5 -6 6 -1 11 2 17 5 13 3 -3 4 -12 1 -19z m-17 -38 c0 -5
-4 -10 -10 -10 -5 0 -10 5 -10 10 0 6 5 10 10 10 6 0 10 -4 10 -10z m205 -120
c3 -5 -1 -10 -9 -10 -9 0 -16 5 -16 10 0 6 4 10 9 10 6 0 13 -4 16 -10z m105
0 c0 -5 -7 -10 -15 -10 -8 0 -15 5 -15 10 0 6 7 10 15 10 8 0 15 -4 15 -10z
m-253 -6 c-3 -3 -12 -4 -19 -1 -8 3 -5 6 6 6 11 1 17 -2 13 -5z m70 0 c-3 -3
-12 -4 -19 -1 -8 3 -5 6 6 6 11 1 17 -2 13 -5z m130 0 c-3 -3 -12 -4 -19 -1
-8 3 -5 6 6 6 11 1 17 -2 13 -5z"/>
<path d="M1586 4454 c-70 -92 -124 -169 -121 -172 3 -4 9 -2 13 4 4 6 18 14
32 18 24 7 24 6 6 -8 -18 -15 1 -16 212 -16 266 0 247 -12 165 102 -26 37 -74
106 -107 153 -32 47 -62 85 -66 85 -3 0 -64 -75 -134 -166z m249 -44 c-3 -5
-11 -10 -16 -10 -6 0 -7 5 -4 10 3 6 11 10 16 10 6 0 7 -4 4 -10z m-35 -10 c0
-5 -5 -10 -11 -10 -5 0 -7 5 -4 10 3 6 8 10 11 10 2 0 4 -4 4 -10z m-45 -20
c-3 -5 -11 -10 -16 -10 -6 0 -7 5 -4 10 3 6 11 10 16 10 6 0 7 -4 4 -10z m-50
-20 c-3 -5 -11 -10 -16 -10 -6 0 -7 5 -4 10 3 6 11 10 16 10 6 0 7 -4 4 -10z
m-38 -16 c-3 -3 -12 -4 -19 -1 -8 3 -5 6 6 6 11 1 17 -2 13 -5z m-52 -14 c-3
-5 -11 -10 -16 -10 -6 0 -7 5 -4 10 3 6 11 10 16 10 6 0 7 -4 4 -10z m-45 -20
c-8 -5 -17 -7 -19 -4 -3 3 1 9 9 14 8 5 17 7 19 4 3 -3 -1 -9 -9 -14z"/>
<path d="M4446 4717 c14 -46 21 -52 33 -28 14 25 9 37 -19 44 -18 4 -20 2 -14
-16z"/>
<path d="M4488 4672 c-17 -37 -17 -38 21 -167 35 -118 41 -130 65 -136 15 -4
33 -12 39 -17 8 -6 96 15 262 64 138 41 257 77 265 80 13 4 -599 214 -625 214
-5 0 -18 -17 -27 -38z"/>
<path d="M4432 4670 c0 -14 2 -19 5 -12 2 6 2 18 0 25 -3 6 -5 1 -5 -13z"/>
<path d="M4427 4568 c-4 -40 -10 -122 -13 -182 -7 -105 -6 -109 12 -102 10 4
31 10 45 13 38 7 64 61 51 105 -6 18 -25 79 -42 136 -17 56 -35 102 -39 102
-5 0 -11 -33 -14 -72z"/>
<path d="M4560 4340 c0 -5 9 -10 21 -10 11 0 17 5 14 10 -3 6 -13 10 -21 10
-8 0 -14 -4 -14 -10z"/>
<path d="M4526 4323 c-6 -14 -5 -15 5 -6 7 7 10 15 7 18 -3 3 -9 -2 -12 -12z"/>
<path d="M845 4440 c-188 -81 -269 -121 -267 -131 2 -12 30 -79 68 -164 7 -16
41 -95 74 -175 85 -201 84 -200 92 -200 3 0 15 24 26 53 11 28 79 204 152 391
72 186 130 339 128 340 -2 1 -124 -50 -273 -114z m105 -83 c0 -16 -140 -392
-147 -394 -9 -3 -129 285 -122 291 2 1 58 26 124 54 107 46 145 59 145 49z"/>
<path d="M815 4295 c-55 -24 -104 -46 -109 -48 -5 -2 10 -49 33 -105 22 -55
46 -114 52 -129 11 -27 12 -25 39 52 15 44 44 124 63 178 19 53 32 97 29 96
-4 0 -52 -20 -107 -44z"/>
<path d="M5215 4530 c-3 -5 -1 -10 4 -10 6 0 11 5 11 10 0 6 -2 10 -4 10 -3 0
-8 -4 -11 -10z"/>
<path d="M5232 4489 c2 -6 8 -10 13 -10 5 0 11 4 13 10 2 6 -4 11 -13 11 -9 0
-15 -5 -13 -11z"/>
<path d="M4740 4260 c0 -31 213 -115 324 -126 63 -6 68 -6 64 12 -4 25 -108
77 -208 103 -79 22 -180 28 -180 11z"/>
<path d="M4673 4047 c-46 -146 -57 -193 -47 -195 21 -5 16 -22 -6 -22 -52 0 2
-45 100 -84 85 -33 175 -56 223 -56 34 0 39 3 34 20 -6 22 8 28 16 8 2 -7 30
68 61 167 31 99 61 193 66 208 6 18 6 26 -1 22 -31 -20 -275 50 -350 99 l-36
24 -60 -191z m17 -207 c0 -5 -9 -10 -21 -10 -11 0 -17 5 -14 10 3 6 13 10 21
10 8 0 14 -4 14 -10z m47 -6 c-3 -3 -12 -4 -19 -1 -8 3 -5 6 6 6 11 1 17 -2
13 -5z m48 -4 c3 -5 -1 -10 -9 -10 -9 0 -16 5 -16 10 0 6 4 10 9 10 6 0 13 -4
16 -10z m50 -20 c3 -5 2 -10 -4 -10 -5 0 -13 5 -16 10 -3 6 -2 10 4 10 5 0 13
-4 16 -10z m42 -16 c-3 -3 -12 -4 -19 -1 -8 3 -5 6 6 6 11 1 17 -2 13 -5z m43
-25 c0 -6 -4 -7 -10 -4 -5 3 -10 11 -10 16 0 6 5 7 10 4 6 -3 10 -11 10 -16z
m45 -19 c3 -5 2 -10 -4 -10 -5 0 -13 5 -16 10 -3 6 -2 10 4 10 5 0 13 -4 16
-10z"/>
<path d="M5746 4062 c-2 -4 -1 -13 3 -20 4 -8 11 -5 19 8 10 16 10 20 -2 20
-8 0 -17 -4 -20 -8z"/>
<path d="M5268 3920 c-154 -46 -196 -227 -78 -334 52 -47 109 -62 179 -48 73
15 88 29 63 56 -70 77 -70 196 1 274 18 20 19 24 7 32 -42 27 -120 36 -172 20z
m36 -187 c-4 -23 -11 -30 -27 -29 -33 2 -30 48 3 56 32 8 31 9 24 -27z"/>
<path d="M5265 3730 c-3 -5 -2 -10 4 -10 5 0 13 5 16 10 3 6 2 10 -4 10 -5 0
-13 -4 -16 -10z"/>
<path d="M5527 3915 c-52 -18 -54 -21 -29 -48 31 -32 52 -90 52 -139 0 -47
-27 -115 -53 -137 -10 -7 -17 -17 -17 -21 0 -11 87 -40 119 -40 79 0 159 53
192 125 71 156 -95 321 -264 260z m110 -124 c-3 -13 1 -21 14 -24 29 -8 24
-46 -7 -57 -14 -6 -28 -10 -31 -10 -6 0 6 90 14 103 9 14 15 7 10 -12z"/>
<path d="M5637 3743 c-12 -12 -7 -22 8 -17 8 4 15 10 15 15 0 11 -14 12 -23 2z"/>
<path d="M5863 3845 c-3 -9 -3 -19 1 -22 7 -7 36 16 36 28 0 15 -30 10 -37 -6z"/>
<path d="M5448 3810 c-27 -17 -48 -32 -48 -35 0 -3 23 9 50 26 28 17 50 33 50
35 0 6 -2 5 -52 -26z"/>
<path d="M5479 3808 c-9 -30 -6 -37 12 -28 23 13 25 22 2 13 -11 -4 -14 -3 -9
5 4 7 5 12 2 12 -3 0 -6 -1 -7 -2z"/>
<path d="M5444 3694 c-18 -14 -18 -15 4 -4 12 6 22 13 22 15 0 8 -5 6 -26 -11z"/>
<path d="M130 3731 c0 -18 18 -21 30 -6 10 13 9 15 -9 15 -11 0 -21 -4 -21 -9z"/>
<path d="M250 3515 c-7 -9 -10 -18 -7 -21 10 -11 37 5 37 21 0 19 -14 19 -30
0z"/>
<path d="M805 3623 c-75 -27 -111 -57 -141 -118 -27 -57 -28 -67 -11 -208 4
-28 27 -63 27 -40 0 7 -4 15 -10 18 -5 3 -10 11 -10 17 0 7 4 7 13 -1 11 -8
21 -1 47 32 70 87 135 157 147 157 6 0 67 -22 134 -49 l121 -50 -4 49 c-14
144 -174 242 -313 193z"/>
<path d="M776 3370 c-42 -50 -76 -95 -76 -100 0 -19 114 -79 127 -66 5 4 32
250 28 254 -1 2 -37 -38 -79 -88z"/>
<path d="M886 3451 c17 -17 215 -103 222 -97 11 11 -12 25 -115 65 -106 42
-124 48 -107 32z"/>
<path d="M871 3299 c-7 -72 -10 -133 -8 -136 8 -7 136 26 175 46 45 23 115 92
104 102 -7 7 -247 119 -255 119 -2 0 -9 -59 -16 -131z"/>
<path d="M1102 3239 c-45 -40 -123 -74 -192 -85 -41 -7 -47 -19 -19 -37 34
-21 211 57 245 108 31 47 12 55 -34 14z"/>
<path d="M702 3228 c5 -16 72 -54 111 -63 22 -6 26 -4 21 9 -3 9 -13 16 -21
16 -8 0 -38 11 -65 25 -29 15 -48 20 -46 13z"/>
<path d="M1480 3476 c-60 -38 -63 -33 25 -51 18 -4 25 -1 25 10 0 8 5 15 11
15 6 0 9 -6 6 -14 -5 -11 8 -18 51 -26 31 -6 62 -13 68 -15 6 -2 40 14 75 36
35 21 61 39 58 39 -3 0 -57 9 -119 20 -116 21 -129 20 -130 -17 0 -7 -5 -13
-10 -13 -6 0 -8 11 -4 25 3 14 5 25 3 25 -2 0 -29 -16 -59 -34z"/>
<path d="M1754 3419 l-62 -39 -12 -67 c-10 -50 -10 -68 -2 -71 17 -5 15 -22
-2 -22 -12 0 -30 -58 -21 -68 2 -2 27 10 57 27 29 17 47 31 41 31 -7 0 -13 5
-13 11 0 6 8 8 18 5 16 -6 21 7 39 111 12 65 20 119 19 119 0 1 -29 -16 -62
-37z m-24 -199 c0 -5 -4 -10 -9 -10 -6 0 -13 5 -16 10 -3 6 1 10 9 10 9 0 16
-4 16 -10z"/>
<path d="M1406 3411 c-13 -44 -37 -203 -32 -208 3 -3 12 0 20 6 9 8 16 8 20 2
4 -5 -4 -13 -16 -17 -22 -7 -22 -7 -3 -14 32 -12 226 -43 232 -37 12 12 20 77
11 83 -7 4 -6 9 1 13 11 7 37 128 29 136 -2 3 -61 15 -131 28 -113 21 -127 21
-131 8z m130 -37 c-3 -9 -6 -29 -6 -45 0 -16 -4 -29 -10 -29 -5 0 -8 15 -6 33
2 17 4 38 5 45 0 6 6 12 12 12 6 0 8 -7 5 -16z m-16 -94 c0 -5 -2 -10 -4 -10
-3 0 -8 5 -11 10 -3 6 -1 10 4 10 6 0 11 -4 11 -10z m-30 -29 c0 -5 -13 -16
-30 -25 -38 -18 -39 -6 -2 16 32 21 32 21 32 9z m60 -1 c0 -5 -9 -10 -19 -10
-11 0 -23 5 -26 10 -4 6 5 10 19 10 14 0 26 -4 26 -10z m70 -10 c0 -6 -11 -9
-25 -7 -37 5 -42 17 -7 17 18 0 32 -5 32 -10z"/>
<path d="M5055 3459 c-3 -8 -2 -108 2 -222 l8 -208 115 141 c63 78 126 155
139 172 31 38 23 53 -49 92 -43 23 -70 30 -132 34 -60 4 -79 1 -83 -9z"/>
<path d="M4920 3316 c-167 -62 -252 -156 -281 -311 -13 -69 1 -167 32 -227 45
-87 160 -165 288 -194 40 -9 74 -15 76 -12 2 2 0 84 -5 183 -5 99 -13 269 -16
378 l-7 197 -26 -1 c-14 0 -42 -6 -61 -13z"/>
<path d="M5295 3236 c-6 -8 -48 -58 -93 -113 -136 -159 -134 -163 20 -42 l146
114 -26 28 c-30 31 -33 32 -47 13z"/>
<path d="M5274 3102 c-159 -122 -213 -166 -210 -169 3 -4 333 34 375 43 21 5
23 8 17 46 -7 40 -62 158 -75 158 -3 0 -51 -35 -107 -78z"/>
<path d="M5368 2951 c-26 -4 -49 -9 -52 -12 -25 -24 -183 -289 -173 -289 3 0
44 63 91 140 75 120 106 160 106 134 0 -7 -48 -87 -148 -246 -60 -95 -61 -98
-36 -98 14 0 23 4 20 9 -5 8 36 88 144 279 33 59 50 76 50 51 0 -12 -115 -225
-157 -292 l-24 -39 23 7 c75 23 176 114 218 196 13 25 25 70 28 106 5 71 11
68 -90 54z m34 -64 c-16 -29 -55 -100 -87 -159 -32 -60 -65 -108 -72 -108 -8
0 -12 3 -10 8 2 4 32 59 67 122 99 182 111 201 121 194 6 -3 -2 -27 -19 -57z
m38 3 c-5 -10 -7 -26 -3 -36 8 -22 -37 -106 -55 -99 -7 3 -22 -10 -33 -30 -19
-32 -39 -46 -39 -27 0 4 16 34 36 66 19 32 46 81 60 108 14 27 29 46 34 43 7
-4 6 -13 0 -25z"/>
<path d="M5244 2917 c-6 -12 -43 -80 -82 -152 -40 -71 -74 -134 -76 -140 -2
-5 -7 -6 -12 -2 -9 9 54 141 115 242 44 72 44 73 -39 59 -31 -5 -38 -12 -59
-60 -13 -30 -27 -54 -32 -54 -14 0 -11 18 11 60 11 22 18 40 15 40 -2 0 -13
-17 -24 -38 -17 -33 -19 -53 -15 -138 6 -125 12 -164 25 -164 6 0 8 4 4 9 -3
5 -1 13 5 16 6 4 28 42 50 85 22 43 64 117 95 163 30 47 55 88 55 91 0 15 -26
3 -36 -17z m-44 -3 c0 -3 -8 -18 -19 -32 -10 -15 -40 -70 -67 -122 -27 -55
-49 -88 -51 -78 -4 17 64 161 99 211 18 24 38 36 38 21z m-50 -8 c0 -15 -72
-146 -80 -146 -6 0 -10 4 -10 8 0 11 49 114 62 130 10 12 28 17 28 8z"/>
<path d="M5892 2968 c-12 -23 -21 -43 -19 -44 2 -2 13 -1 25 3 18 4 22 13 22
44 0 22 -1 39 -2 39 -2 0 -13 -19 -26 -42z"/>
<path d="M1105 2927 c-68 -23 -119 -53 -163 -97 l-42 -42 60 -40 c70 -46 133
-128 156 -202 l16 -51 70 -17 c100 -25 203 -97 246 -174 10 -18 12 -18 40 9
16 16 42 54 58 85 27 53 29 66 29 167 0 106 -1 112 -34 173 -68 125 -177 194
-316 199 -48 2 -96 -2 -120 -10z m124 -191 c11 -49 14 -53 36 -48 29 5 55 -13
55 -38 0 -21 -59 -75 -70 -63 -9 10 -50 162 -50 186 0 36 17 14 29 -37z"/>
<path d="M1256 2661 c-7 -11 3 -41 14 -41 13 0 32 29 25 40 -8 12 -32 13 -39
1z"/>
<path d="M664 2790 c-140 -28 -253 -138 -290 -280 -54 -211 83 -422 302 -463
l31 -6 6 76 c7 87 53 197 105 246 l29 28 -20 57 c-27 80 -21 196 15 273 l26
57 -56 11 c-62 12 -88 12 -148 1z m-18 -332 c12 -32 22 -58 21 -59 -1 0 -20
-3 -43 -5 -50 -6 -72 13 -54 45 6 12 20 21 30 21 22 0 23 1 14 24 -9 23 -23
20 -36 -9 -12 -27 -28 -34 -28 -12 0 25 32 58 53 55 15 -2 27 -19 43 -60z"/>
<path d="M590 2425 c0 -8 7 -15 15 -15 8 0 15 7 15 15 0 8 -7 15 -15 15 -8 0
-15 -7 -15 -15z"/>
<path d="M872 2734 c-7 -14 -8 -23 -2 -19 15 9 32 45 22 45 -5 0 -14 -12 -20
-26z"/>
<path d="M885 2659 c-31 -39 -55 -72 -53 -74 1 -2 31 30 66 71 34 41 58 74 53
74 -5 0 -34 -32 -66 -71z"/>
<path d="M915 2644 c-66 -78 -90 -113 -82 -120 2 -3 32 28 65 68 33 41 67 80
76 87 9 7 16 17 16 22 0 22 -23 4 -75 -57z"/>
<path d="M860 2675 c-13 -14 -22 -27 -19 -29 2 -2 14 10 27 25 29 36 24 38 -8
4z"/>
<path d="M969 2643 c-51 -54 -129 -153 -129 -164 0 -8 146 160 164 189 13 22
1 13 -35 -25z"/>
<path d="M945 2563 c-78 -94 -100 -123 -92 -123 9 0 178 202 175 210 -2 5 -39
-34 -83 -87z"/>
<path d="M1035 2616 c-6 -8 -47 -57 -93 -110 -45 -53 -79 -96 -74 -96 9 0 192
204 192 214 0 11 -15 6 -25 -8z"/>
<path d="M1034 2558 c-77 -86 -87 -98 -78 -98 6 0 36 29 68 65 31 36 53 65 49
65 -5 0 -22 -15 -39 -32z"/>
<path d="M1050 2525 c-18 -19 -31 -37 -29 -40 3 -2 21 11 39 30 18 19 31 37
29 40 -3 2 -21 -11 -39 -30z"/>
<path d="M1079 2503 c-13 -16 -12 -17 4 -4 9 7 17 15 17 17 0 8 -8 3 -21 -13z"/>
<path d="M1025 2399 c-70 -83 -92 -113 -78 -108 6 2 36 36 68 74 32 39 65 78
73 88 8 9 11 17 6 16 -5 0 -36 -32 -69 -70z"/>
<path d="M1136 2455 c4 -8 7 -15 9 -15 2 0 5 7 9 15 3 9 0 15 -9 15 -9 0 -12
-6 -9 -15z"/>
<path d="M989 2450 c-21 -12 -93 -100 -87 -106 3 -2 28 23 57 56 29 33 51 60
49 60 -2 0 -10 -5 -19 -10z"/>
<path d="M1009 2423 c-76 -83 -92 -103 -88 -108 3 -2 33 29 67 70 68 81 77 98
21 38z"/>
<path d="M1200 2449 c0 -6 -11 -25 -24 -42 -35 -48 -59 -87 -53 -87 7 0 97
125 97 134 0 3 -4 6 -10 6 -5 0 -10 -5 -10 -11z"/>
<path d="M1229 2428 c-6 -12 -25 -40 -41 -60 -16 -21 -27 -38 -24 -38 10 0 89
110 83 116 -3 3 -11 -5 -18 -18z"/>
<path d="M1045 2368 c-59 -69 -80 -98 -72 -98 2 0 36 38 76 85 40 47 69 85 64
85 -4 0 -35 -32 -68 -72z"/>
<path d="M1208 2348 c-87 -113 -111 -148 -100 -148 5 0 22 19 37 43 44 67 126
167 136 167 6 0 7 -4 4 -10 -3 -6 1 -7 9 -4 28 11 17 -9 -50 -91 -35 -44 -69
-89 -75 -100 -12 -24 -12 -24 85 98 38 47 73 84 78 81 5 -3 3 -13 -5 -22 -81
-97 -136 -172 -125 -172 7 0 25 15 40 34 42 52 108 148 108 157 0 7 -62 49
-73 49 -3 0 -34 -37 -69 -82z"/>
<path d="M903 2408 c-24 -32 -24 -41 0 -19 15 14 27 26 27 28 0 8 -19 2 -27
-9z"/>
<path d="M1069 2348 c-67 -79 -87 -109 -35 -53 49 52 90 105 83 105 -2 0 -24
-23 -48 -52z"/>
<path d="M821 2335 c-33 -38 -41 -56 -16 -35 18 15 59 70 52 70 -3 0 -19 -16
-36 -35z"/>
<path d="M1337 2317 l-28 -42 35 40 c52 59 44 20 -9 -45 -25 -30 -45 -58 -45
-62 0 -5 -5 -8 -11 -8 -6 0 -8 7 -5 17 6 15 4 15 -14 -2 -28 -25 -26 -28 19
-21 41 6 135 44 114 45 -19 1 -15 25 8 50 l21 22 -23 25 c-12 13 -25 24 -28
24 -3 -1 -19 -20 -34 -43z m63 -3 c0 -16 -56 -94 -68 -94 -14 0 -13 1 28 63
23 34 40 47 40 31z"/>
<path d="M824 2298 c-21 -24 -43 -43 -48 -43 -5 0 -13 -11 -17 -25 -6 -17 10
-4 50 40 33 35 63 61 67 57 4 -4 -25 -42 -64 -86 -40 -44 -72 -82 -72 -85 0
-3 34 31 75 76 42 45 74 86 72 92 -7 22 -26 15 -63 -26z"/>
<path d="M1061 2293 c-23 -27 -41 -52 -41 -57 0 -5 1 -7 3 -5 2 2 22 28 46 57
53 65 47 69 -8 5z"/>
<path d="M880 2273 c-12 -16 -51 -58 -86 -95 -58 -62 -76 -89 -56 -87 15 2
182 198 173 203 -5 4 -19 -6 -31 -21z"/>
<path d="M1420 2270 c0 -19 3 -21 12 -12 9 9 9 15 0 24 -9 9 -12 7 -12 -12z"/>
<path d="M1065 2254 c-9 -14 -14 -28 -12 -31 3 -3 13 9 22 26 19 38 14 41 -10
5z"/>
<path d="M1390 2213 c-90 -46 -166 -58 -254 -40 l-68 14 -49 -49 c-57 -57
-150 -104 -225 -114 -52 -6 -54 -7 -47 -33 41 -173 231 -297 415 -271 233 33
384 277 305 492 l-12 34 -65 -33z m-212 -195 c7 -7 12 -19 12 -27 0 -11 -4
-10 -20 4 -16 15 -22 16 -35 5 -20 -17 -15 -60 8 -74 15 -9 21 -7 32 8 18 23
34 12 19 -12 -27 -43 -94 -14 -94 41 0 52 48 85 78 55z"/>
<path d="M919 2223 c-13 -16 -12 -17 4 -4 9 7 17 15 17 17 0 8 -8 3 -21 -13z"/>
<path d="M900 2163 c-88 -103 -99 -118 -80 -111 19 6 164 190 148 188 -2 -1
-32 -35 -68 -77z"/>
<path d="M869 2203 l-24 -28 28 24 c25 23 32 31 24 31 -2 0 -14 -12 -28 -27z"/>
<path d="M990 2188 c-21 -32 -21 -32 -1 -9 30 33 38 19 11 -18 -19 -28 -50
-46 -35 -21 15 25 -6 7 -27 -22 l-23 -33 30 19 c70 44 103 87 81 105 -11 9
-19 5 -36 -21z"/>
<path d="M860 2155 c-24 -25 -42 -45 -39 -45 3 0 25 20 49 45 24 25 42 45 39
45 -3 0 -25 -20 -49 -45z"/>
<path d="M776 2101 c-29 -30 -44 -51 -37 -55 6 -4 11 -3 11 2 0 5 18 30 41 56
53 60 46 59 -15 -3z"/>
<path d="M785 2070 c-10 -11 -16 -22 -14 -24 2 -2 12 7 22 20 22 29 17 32 -8
4z"/>
<path d="M5594 2642 c-50 -119 -87 -218 -82 -220 14 -6 9 -22 -8 -22 -31 0 -9
-35 36 -57 95 -48 291 -36 347 20 l23 22 -106 230 c-59 127 -109 233 -113 237
-3 4 -47 -91 -97 -210z m86 -202 c0 -5 -4 -10 -10 -10 -5 0 -10 5 -10 10 0 6
5 10 10 10 6 0 10 -4 10 -10z m40 0 c0 -5 -5 -10 -11 -10 -5 0 -7 5 -4 10 3 6
8 10 11 10 2 0 4 -4 4 -10z m-130 -10 c0 -5 -4 -10 -10 -10 -5 0 -10 5 -10 10
0 6 5 10 10 10 6 0 10 -4 10 -10z m47 4 c-3 -3 -12 -4 -19 -1 -8 3 -5 6 6 6
11 1 17 -2 13 -5z m163 -4 c0 -5 -2 -10 -4 -10 -3 0 -8 5 -11 10 -3 6 -1 10 4
10 6 0 11 -4 11 -10z m-245 -10 c-3 -5 -10 -10 -16 -10 -5 0 -9 5 -9 10 0 6 7
10 16 10 8 0 12 -4 9 -10z m295 0 c0 -5 -2 -10 -4 -10 -3 0 -8 5 -11 10 -3 6
-1 10 4 10 6 0 11 -4 11 -10z m35 0 c3 -5 1 -10 -4 -10 -6 0 -11 5 -11 10 0 6
2 10 4 10 3 0 8 -4 11 -10z"/>
<path d="M4927 2255 c-9 -19 -15 -35 -12 -35 7 0 37 61 33 66 -3 2 -12 -12
-21 -31z"/>
<path d="M4927 2205 c-9 -19 -15 -35 -12 -35 7 0 37 61 33 66 -3 2 -12 -12
-21 -31z"/>
<path d="M4941 2189 c-1 -4 -8 -23 -16 -43 -8 -20 -13 -36 -10 -36 9 0 36 62
31 73 -2 7 -5 9 -5 6z"/>
<path d="M5236 2165 c-9 -26 -7 -32 5 -12 6 10 9 21 6 23 -2 3 -7 -2 -11 -11z"/>
<path d="M4927 2095 c-9 -19 -15 -35 -12 -35 7 0 37 61 33 66 -3 2 -12 -12
-21 -31z"/>
<path d="M4937 2065 c-29 -80 -29 -98 -2 -44 9 17 15 38 13 47 -3 14 -5 14
-11 -3z"/>
<path d="M5236 2035 c-9 -26 -7 -32 5 -12 6 10 9 21 6 23 -2 3 -7 -2 -11 -11z"/>
<path d="M4921 1924 c0 -11 3 -14 6 -6 3 7 2 16 -1 19 -3 4 -6 -2 -5 -13z"/>
<path d="M5235 1920 c-3 -5 -1 -10 4 -10 6 0 11 5 11 10 0 6 -2 10 -4 10 -3 0
-8 -4 -11 -10z"/>
<path d="M1717 2236 c-172 -47 -226 -269 -96 -393 36 -34 95 -63 129 -63 20 0
20 5 20 235 0 129 -1 235 -2 234 -2 0 -25 -6 -51 -13z"/>
<path d="M1821 2191 c-15 -20 -32 -43 -36 -51 -8 -13 -7 -13 8 -1 9 7 17 9 17
3 0 -5 -7 -15 -15 -22 -12 -10 -13 -15 -4 -21 10 -6 10 -12 -2 -26 -13 -16
-13 -17 4 -4 21 16 23 -1 2 -19 -17 -14 -21 -35 -5 -25 6 3 10 1 10 -4 0 -6
12 -11 28 -10 l27 1 -25 8 c-14 4 -22 9 -17 10 4 1 12 4 17 5 6 1 11 3 13 5 1
1 10 3 20 5 20 4 22 -6 5 -23 -7 -7 -9 -12 -5 -12 4 0 18 17 32 39 22 32 31
38 56 36 16 -1 31 1 34 5 3 4 -9 6 -26 5 -19 -2 -28 2 -26 9 2 6 9 11 15 11 6
0 17 7 24 15 11 12 11 12 -3 2 -9 -6 -18 -9 -22 -6 -3 3 -13 -6 -22 -20 -10
-14 -21 -24 -25 -21 -4 3 -7 -3 -6 -12 0 -11 -6 -18 -19 -18 -11 0 -26 -4 -32
-8 -7 -5 -13 -4 -13 1 0 11 32 39 36 32 1 -3 6 -1 11 4 5 5 3 6 -4 2 -7 -4
-13 -3 -13 2 0 11 22 31 32 29 3 -1 10 2 15 7 5 5 2 6 -6 1 -9 -5 -12 -3 -9 6
3 8 10 14 16 14 5 0 14 4 19 9 5 5 2 6 -6 1 -9 -5 -12 -3 -9 6 3 8 11 13 17
11 7 -1 10 2 6 8 -5 8 -12 7 -23 -2 -13 -11 -15 -10 -9 5 5 12 3 16 -5 11 -8
-5 -9 -2 -5 10 4 10 3 15 -3 11 -6 -3 -10 -2 -10 3 0 21 -33 6 -59 -27z m27 2
c-8 -10 -19 -25 -23 -33 -8 -13 -7 -13 8 -1 10 8 17 9 17 3 0 -6 -4 -14 -10
-17 -5 -3 -15 -15 -21 -27 -9 -16 -8 -19 2 -13 9 6 11 3 6 -8 -10 -27 -3 -20
33 31 19 26 26 41 17 33 -20 -16 -23 -2 -4 19 10 12 9 12 -5 1 -21 -16 -25 1
-5 18 11 8 16 5 25 -14 11 -23 7 -32 -35 -90 -26 -36 -49 -63 -51 -60 -3 2 1
11 7 19 9 11 10 20 1 36 -9 16 -9 25 0 35 7 8 9 19 5 25 -7 11 34 75 43 66 3
-3 -2 -14 -10 -23z m2 -68 c-7 -9 -15 -13 -18 -10 -3 2 1 11 8 20 7 9 15 13
18 10 3 -2 -1 -11 -8 -20z"/>
<path d="M1992 2075 c4 -4 3 -13 -2 -20 -7 -8 -5 -12 5 -12 18 0 20 23 3 33
-7 4 -10 4 -6 -1z"/>
<path d="M1965 2020 c-3 -5 -22 -7 -42 -5 -24 2 -32 0 -22 -6 21 -13 111 -11
107 3 -5 14 -36 20 -43 8z"/>
<path d="M1788 1890 l3 -112 30 6 c81 16 155 80 177 153 14 46 6 53 -63 53
-27 0 -72 3 -100 6 l-50 6 3 -112z"/>
<path d="M4322 1970 c-52 -24 -86 -49 -114 -87 l-22 -28 32 29 c18 17 32 25
32 20 0 -14 -43 -54 -57 -54 -34 0 -48 -167 -21 -231 22 -50 83 -116 132 -142
32 -17 58 -22 121 -22 94 0 140 20 199 85 51 57 69 103 69 180 0 78 -18 123
-70 180 -76 85 -203 114 -301 70z m-92 -128 c0 -5 -11 -19 -25 -32 -29 -27
-32 -21 -9 15 16 24 34 33 34 17z m433 -22 c3 -13 1 -20 -5 -18 -6 2 -13 14
-15 27 -4 27 12 20 20 -9z m-443 -28 c0 -4 -5 -13 -12 -20 -9 -9 -9 -12 0 -12
16 0 15 -11 -3 -34 -8 -11 -18 -17 -21 -13 -4 4 -1 13 6 22 11 13 10 14 -5 9
-17 -7 -17 -6 1 24 17 30 34 42 34 24z m445 -11 c3 -5 1 -12 -5 -16 -5 -3 -10
1 -10 9 0 18 6 21 15 7z m-451 -105 c-16 -32 -34 -48 -34 -28 0 13 41 74 46
69 3 -2 -3 -21 -12 -41z m16 -26 c-10 -19 -30 -36 -30 -26 0 16 24 55 31 50 5
-3 5 -14 -1 -24z m9 -32 c-8 -14 -14 -18 -17 -10 -4 13 17 46 25 38 3 -2 -1
-15 -8 -28z m37 -36 c-10 -10 -29 15 -21 28 6 9 10 8 17 -4 6 -10 7 -20 4 -24z
m50 -29 c-6 -6 -36 9 -36 18 0 5 9 4 20 -3 10 -7 18 -14 16 -15z m34 -7 c0 -3
-4 -8 -10 -11 -5 -3 -10 -1 -10 4 0 6 5 11 10 11 6 0 10 -2 10 -4z m25 -16 c3
-5 1 -10 -4 -10 -6 0 -11 5 -11 10 0 6 2 10 4 10 3 0 8 -4 11 -10z m65 0 c0
-5 -4 -10 -10 -10 -5 0 -10 5 -10 10 0 6 5 10 10 10 6 0 10 -4 10 -10z"/>
<path d="M1329 1666 c-62 -29 -176 -81 -251 -116 -76 -35 -137 -65 -135 -66 1
-1 180 -106 397 -234 217 -128 405 -240 418 -248 22 -14 22 -14 13 9 -5 13
-39 86 -75 163 -36 76 -66 139 -66 141 0 1 -26 58 -59 126 -60 128 -95 204
-115 251 l-12 28 -115 -54z m194 -267 c49 -105 86 -193 83 -196 -6 -6 -445
248 -446 258 0 7 249 127 265 128 6 0 50 -85 98 -190z"/>
<path d="M1303 1517 c-62 -29 -113 -54 -112 -57 0 -6 383 -230 387 -226 4 5
-151 336 -157 336 -3 -1 -57 -24 -118 -53z"/>
<path d="M281 1547 l-63 -40 33 -18 c19 -10 37 -18 40 -19 7 0 62 111 57 115
-2 1 -32 -16 -67 -38z"/>
<path d="M2175 1332 c-116 -40 -199 -113 -252 -221 -26 -51 -28 -66 -28 -171
0 -110 1 -118 33 -182 63 -129 172 -207 325 -233 l37 -6 0 416 0 415 -32 0
c-18 -1 -56 -8 -83 -18z"/>
<path d="M2310 1140 l0 -212 116 -126 c65 -70 125 -136 135 -147 18 -19 19
-19 49 10 17 17 45 59 63 95 30 61 32 71 32 175 0 103 -2 114 -32 177 -58 124
-183 217 -310 234 l-53 7 0 -213z"/>
<path d="M2310 875 c1 -26 2 -28 11 -12 8 14 8 22 0 30 -8 8 -11 3 -11 -18z"/>
<path d="M2332 814 c-12 -18 -22 -37 -22 -41 0 -4 12 10 26 30 14 21 24 40 22
42 -2 2 -13 -12 -26 -31z"/>
<path d="M2341 782 c-43 -67 -39 -79 5 -14 20 30 34 56 31 58 -2 3 -19 -17
-36 -44z"/>
<path d="M2351 748 c-22 -35 -41 -69 -41 -77 0 -8 21 18 46 58 26 39 44 74 41
77 -2 3 -23 -23 -46 -58z"/>
<path d="M2389 752 c-40 -57 -62 -92 -57 -92 7 0 91 121 87 125 -2 2 -16 -13
-30 -33z"/>
<path d="M2370 680 c-34 -50 -60 -93 -58 -96 3 -2 32 37 66 88 34 50 61 93 58
95 -2 2 -31 -37 -66 -87z"/>
<path d="M2381 647 c-39 -59 -71 -110 -71 -113 0 -4 32 37 70 92 39 54 76 101
82 103 14 5 8 -5 -62 -104 -67 -95 -77 -110 -63 -102 6 4 36 45 68 92 52 78
75 105 75 90 0 -3 -22 -38 -48 -78 -55 -81 -70 -107 -55 -92 5 6 34 46 64 90
l55 81 -22 23 -22 23 -71 -105z"/>
<path d="M2482 663 c-26 -38 -34 -53 -29 -53 2 0 16 18 31 40 29 45 28 56 -2
13z"/>
<path d="M2480 615 c-35 -54 -61 -76 -40 -32 10 20 9 20 -9 -3 -37 -45 -30
-49 40 -19 32 14 49 28 49 39 0 10 7 23 15 30 10 9 15 9 15 1 0 -6 5 -11 12
-11 6 0 1 11 -12 25 -13 14 -26 25 -29 25 -3 0 -22 -25 -41 -55z m34 6 c-16
-27 -34 -41 -34 -26 0 10 43 65 48 61 2 -3 -4 -18 -14 -35z"/>
<path d="M1070 1094 l0 -211 88 -6 c48 -3 112 -13 142 -21 30 -8 56 -14 56
-13 1 1 -59 99 -133 217 -74 118 -138 222 -143 230 -6 9 -10 -63 -10 -196z"/>
<path d="M944 1098 c-59 -106 -118 -209 -130 -229 l-23 -36 61 19 c34 10 95
21 135 25 l73 6 0 203 c0 112 -2 204 -4 204 -2 0 -53 -87 -112 -192z m99 -65
c4 -3 -3 -17 -15 -30 -18 -19 -19 -23 -5 -23 9 0 17 -4 17 -10 0 -11 -43 -14
-53 -3 -4 3 3 17 15 30 18 19 19 23 5 23 -9 0 -17 5 -17 10 0 11 43 14 53 3z"/>
<path d="M893 845 c-81 -18 -123 -42 -123 -72 0 -48 128 -83 306 -83 132 0
147 7 114 48 -15 18 -28 22 -74 22 l-56 0 0 50 0 50 -52 -1 c-29 0 -81 -7
-115 -14z"/>
<path d="M1070 846 c0 -9 11 -21 25 -26 16 -6 23 -14 19 -25 -5 -13 12 -15
130 -15 84 0 136 -4 136 -10 0 -6 -29 -10 -68 -10 -67 0 -68 0 -80 -32 -6 -17
-11 -33 -9 -34 6 -5 115 29 141 44 38 22 42 36 17 61 -29 29 -113 51 -218 58
-83 5 -93 4 -93 -11z"/>
<path d="M1070 795 c0 -8 7 -15 15 -15 8 0 15 7 15 15 0 8 -7 15 -15 15 -8 0
-15 -7 -15 -15z"/>
<path d="M1200 750 c0 -5 5 -10 10 -10 6 0 10 5 10 10 0 6 -4 10 -10 10 -5 0
-10 -4 -10 -10z"/>
<path d="M3930 1222 l-115 -77 213 -3 212 -2 108 71 c59 39 111 76 116 80 6 5
-79 9 -197 9 -190 0 -207 -1 -208 -17 0 -17 -1 -17 -7 -1 -6 15 -24 7 -122
-60z m127 6 c-3 -8 -6 -5 -6 6 -1 11 2 17 5 13 3 -3 4 -12 1 -19z m0 -50 c-3
-8 -6 -5 -6 6 -1 11 2 17 5 13 3 -3 4 -12 1 -19z"/>
<path d="M4373 1208 l-123 -81 0 -255 0 -254 28 18 c154 100 190 127 185 140
-3 9 2 14 16 14 21 0 21 2 21 250 0 138 -1 250 -2 250 -2 0 -58 -37 -125 -82z
m-63 -428 c0 -5 -5 -10 -11 -10 -5 0 -7 5 -4 10 3 6 8 10 11 10 2 0 4 -4 4
-10z m45 0 c3 -5 -1 -10 -10 -10 -9 0 -13 5 -10 10 3 6 8 10 10 10 2 0 7 -4
10 -10z m45 0 c0 -5 -7 -10 -16 -10 -8 0 -12 5 -9 10 3 6 10 10 16 10 5 0 9
-4 9 -10z m40 0 c0 -5 -2 -10 -4 -10 -3 0 -8 5 -11 10 -3 6 -1 10 4 10 6 0 11
-4 11 -10z"/>
<path d="M3790 879 c0 -227 2 -251 16 -245 12 4 15 2 10 -9 -5 -13 21 -15 204
-15 l210 0 0 79 c0 67 -3 80 -17 84 -17 4 -17 5 0 6 15 1 17 16 17 176 l0 175
-79 0 c-54 0 -81 -4 -85 -12 -5 -10 -7 -10 -12 0 -4 9 -41 12 -135 12 l-129 0
0 -251z m280 196 c0 -8 -4 -15 -10 -15 -5 0 -10 7 -10 15 0 8 5 15 10 15 6 0
10 -7 10 -15z m0 -50 c0 -8 -4 -15 -10 -15 -5 0 -10 7 -10 15 0 8 5 15 10 15
6 0 10 -7 10 -15z m0 -65 c0 -5 -4 -10 -10 -10 -5 0 -10 5 -10 10 0 6 5 10 10
10 6 0 10 -4 10 -10z m0 -55 c0 -8 -4 -15 -10 -15 -5 0 -10 7 -10 15 0 8 5 15
10 15 6 0 10 -7 10 -15z m0 -40 c0 -8 -4 -15 -10 -15 -5 0 -10 7 -10 15 0 8 5
15 10 15 6 0 10 -7 10 -15z m0 -45 c0 -5 -4 -10 -10 -10 -5 0 -10 5 -10 10 0
6 5 10 10 10 6 0 10 -4 10 -10z m105 -40 c3 -5 -1 -10 -10 -10 -9 0 -13 5 -10
10 3 6 8 10 10 10 2 0 7 -4 10 -10z m-133 -22 c-6 -6 -15 -8 -19 -4 -4 4 -1
11 7 16 19 12 27 3 12 -12z m61 15 c-7 -2 -19 -2 -25 0 -7 3 -2 5 12 5 14 0
19 -2 13 -5z m-98 -33 c-3 -5 -11 -10 -16 -10 -6 0 -7 5 -4 10 3 6 11 10 16
10 6 0 7 -4 4 -10z m-35 -14 c0 -3 -4 -8 -10 -11 -5 -3 -10 -1 -10 4 0 6 5 11
10 11 6 0 10 -2 10 -4z m-30 -16 c0 -5 -5 -10 -11 -10 -5 0 -7 5 -4 10 3 6 8
10 11 10 2 0 4 -4 4 -10z m-48 -32 c-7 -7 -12 -8 -12 -2 0 14 12 26 19 19 2
-3 -1 -11 -7 -17z m-32 -18 c0 -5 -8 -10 -17 -10 -15 0 -16 2 -3 10 19 12 20
12 20 0z"/>
<path d="M3301 1092 c-40 -33 -72 -64 -71 -68 1 -9 170 -77 176 -71 3 3 -22
165 -29 190 -1 5 -35 -18 -76 -51z"/>
<path d="M4738 1019 c-52 -15 -113 -71 -134 -124 -32 -85 3 -187 81 -235 50
-31 146 -37 198 -13 l38 18 -33 45 c-30 41 -33 51 -33 116 0 65 3 77 32 118
l32 46 -27 14 c-38 20 -110 27 -154 15z m37 -188 c-5 -25 -12 -31 -31 -31 -21
0 -25 4 -22 22 3 20 46 53 56 43 2 -2 1 -17 -3 -34z"/>
<path d="M4735 830 c-3 -5 -2 -10 4 -10 5 0 13 5 16 10 3 6 2 10 -4 10 -5 0
-13 -4 -16 -10z"/>
<path d="M5025 1021 c-16 -4 -40 -13 -52 -19 l-22 -12 31 -45 c42 -59 50 -142
20 -201 -11 -22 -28 -46 -36 -53 -24 -20 -20 -27 24 -45 160 -64 324 72 281
231 -27 100 -145 169 -246 144z m83 -135 c-3 -16 0 -23 11 -22 19 1 26 -30 11
-49 -7 -8 -21 -15 -32 -15 -17 0 -19 5 -12 48 7 49 11 62 21 62 3 0 3 -11 1
-24z"/>
<path d="M5105 839 c-10 -15 3 -25 16 -12 7 7 7 13 1 17 -6 3 -14 1 -17 -5z"/>
<path d="M4934 914 c-18 -14 -18 -14 6 -3 31 14 36 19 24 19 -6 0 -19 -7 -30
-16z"/>
<path d="M4884 884 c-18 -14 -18 -15 4 -4 12 6 22 13 22 15 0 8 -5 6 -26 -11z"/>
<path d="M4964 864 c-18 -14 -18 -15 4 -4 12 6 22 13 22 15 0 8 -5 6 -26 -11z"/>
<path d="M4934 824 c-18 -14 -18 -15 4 -4 12 6 22 13 22 15 0 8 -5 6 -26 -11z"/>
<path d="M3118 932 c-32 -26 -54 -50 -50 -54 10 -9 354 -139 361 -136 4 2 0
37 -7 78 l-13 76 -113 42 c-62 23 -115 42 -117 42 -2 -1 -30 -22 -61 -48z"/>
<path d="M6057 853 c-20 -20 1 -73 30 -73 18 0 35 37 28 60 -6 19 -44 28 -58
13z"/>
<path d="M2963 797 c-28 -23 -52 -44 -52 -47 -1 -7 540 -212 545 -207 2 2 -2
34 -9 72 l-12 68 -193 73 c-106 40 -200 75 -210 78 -10 2 -38 -12 -69 -37z"/>
<path d="M5810 765 c-14 -17 -5 -51 17 -59 23 -9 43 12 43 45 0 24 -4 29 -24
29 -13 0 -29 -7 -36 -15z"/>
<path d="M5696 727 c-23 -17 -17 -52 8 -52 29 0 44 31 25 50 -12 13 -18 13
-33 2z"/>
<path d="M5730 651 c-34 -9 -39 -46 -9 -62 20 -10 25 -9 41 11 10 12 18 26 18
30 0 16 -26 27 -50 21z"/>
<path d="M2908 633 c7 -3 16 -2 19 1 4 3 -2 6 -13 5 -11 0 -14 -3 -6 -6z"/>
<path d="M3048 623 c7 -3 16 -2 19 1 4 3 -2 6 -13 5 -11 0 -14 -3 -6 -6z"/>
<path d="M2955 600 c-27 -10 -43 -18 -35 -18 8 0 38 8 65 18 28 10 43 18 35
18 -8 0 -37 -8 -65 -18z"/>
<path d="M3105 615 c-5 -2 -43 -13 -84 -25 -40 -12 -72 -23 -70 -25 5 -5 157
39 165 48 8 7 6 8 -11 2z"/>
<path d="M3125 590 c-13 -5 -14 -9 -5 -9 8 0 24 4 35 9 13 5 14 9 5 9 -8 0
-24 -4 -35 -9z"/>
<path d="M3030 565 c-30 -9 -37 -13 -20 -13 14 0 41 6 60 13 44 17 19 17 -40
0z"/>
<path d="M3065 545 c-39 -17 -21 -18 25 0 19 7 28 14 20 14 -8 0 -28 -6 -45
-14z"/>
<path d="M3230 550 c-18 -12 -2 -12 25 0 13 6 15 9 5 9 -8 0 -22 -4 -30 -9z"/>
<path d="M3145 521 c-53 -25 -43 -26 20 -1 28 10 43 19 35 19 -8 0 -33 -8 -55
-18z"/>
<path d="M3168 503 c-10 -2 -18 -9 -18 -14 0 -6 10 -5 23 2 37 20 36 23 -5 12z"/>
<path d="M3215 491 c-22 -11 -35 -19 -30 -19 14 -1 93 36 80 37 -5 0 -28 -8
-50 -18z"/>
<path d="M3370 473 c-19 -8 -46 -19 -59 -24 -13 -5 -22 -12 -19 -14 3 -3 34 8
69 24 65 30 73 42 9 14z"/>
<path d="M3391 455 c-37 -18 -60 -34 -54 -38 7 -4 14 -3 18 3 3 5 28 20 56 31
27 12 49 25 49 30 0 5 -1 8 -2 8 -2 -1 -32 -16 -67 -34z"/>
<path d="M3260 450 c0 -5 5 -10 10 -10 6 0 10 5 10 10 0 6 -4 10 -10 10 -5 0
-10 -4 -10 -10z"/>
<path d="M3407 429 c-22 -11 -37 -22 -35 -24 4 -5 88 35 88 41 0 8 -16 3 -53
-17z"/>
<path d="M3420 405 c-14 -8 -20 -14 -15 -14 6 0 21 6 35 14 14 8 21 14 15 14
-5 0 -21 -6 -35 -14z"/>
<path d="M3450 390 c-9 -6 -10 -10 -3 -10 6 0 15 5 18 10 8 12 4 12 -15 0z"/>
<path d="M5194 476 c-27 -20 -7 -51 32 -51 35 0 40 30 8 51 -17 12 -23 12 -40
0z"/>
<path d="M505 479 c-4 -6 -5 -13 -2 -16 7 -7 27 6 27 18 0 12 -17 12 -25 -2z"/>
<path d="M4946 465 c-20 -20 -20 -29 -1 -45 20 -16 47 5 43 33 -4 27 -22 32
-42 12z"/>
<path d="M1423 185 c-3 -9 -3 -18 0 -21 9 -9 27 6 27 22 0 19 -19 18 -27 -1z"/>
<path d="M1747 239 c-4 -15 -1 -19 11 -17 21 4 29 38 9 38 -8 0 -17 -9 -20
-21z"/>
<path d="M6247 5183 c-10 -10 -8 -56 3 -73 7 -11 10 -2 10 33 0 48 -1 52 -13
40z"/>
<path d="M6240 4643 c0 -5 5 -15 10 -23 8 -12 10 -11 10 8 0 12 -4 22 -10 22
-5 0 -10 -3 -10 -7z"/>
<path d="M3450 118 c0 -14 -3 -46 -6 -72 -4 -29 -3 -46 4 -46 15 0 27 119 13
133 -8 8 -11 4 -11 -15z"/>
<path d="M2048 103 c-22 -26 -29 -51 -22 -79 14 -54 74 -9 78 58 1 26 -3 34
-20 36 -11 2 -27 -5 -36 -15z"/>
<path d="M3247 55 l-27 -55 35 0 c34 0 35 1 34 38 -1 73 -12 78 -42 17z"/>
</g>
</svg>
